<?xml version="1.0" encoding="UTF-8" standalone="no"?>
<!-- Created with Inkscape (http://www.inkscape.org/) -->

<svg
   xmlns:dc="http://purl.org/dc/elements/1.1/"
   xmlns:cc="http://creativecommons.org/ns#"
   xmlns:rdf="http://www.w3.org/1999/02/22-rdf-syntax-ns#"
   xmlns:svg="http://www.w3.org/2000/svg"
   xmlns="http://www.w3.org/2000/svg"
   xmlns:sodipodi="http://sodipodi.sourceforge.net/DTD/sodipodi-0.dtd"
   xmlns:inkscape="http://www.inkscape.org/namespaces/inkscape"
   width="867.8371"
   height="224.0867"
   id="svg2"
   version="1.1"
   inkscape:version="0.48.4 r9939"
   sodipodi:docname="New document 1">
  <defs
     id="defs4">
    <clipPath
       id="clipPath8127">
      <path
         id="path8129"
         d="M 0,0 612,0 612,792 0,792 0,0 z"
         inkscape:connector-curvature="0" />
    </clipPath>
    <clipPath
       id="clipPath8191">
      <path
         id="path8193"
         d="M 0,0 612,0 612,792 0,792 0,0 z"
         inkscape:connector-curvature="0" />
    </clipPath>
  </defs>
  <sodipodi:namedview
     id="base"
     pagecolor="#ffffff"
     bordercolor="#666666"
     borderopacity="1.0"
     inkscape:pageopacity="0.0"
     inkscape:pageshadow="2"
     inkscape:zoom="0.98994949"
     inkscape:cx="373.43326"
     inkscape:cy="217.23097"
     inkscape:document-units="px"
     inkscape:current-layer="layer1"
     showgrid="false"
     fit-margin-top="0"
     fit-margin-left="0"
     fit-margin-right="0"
     fit-margin-bottom="0"
     inkscape:window-width="1366"
     inkscape:window-height="706"
     inkscape:window-x="-8"
     inkscape:window-y="-8"
     inkscape:window-maximized="1" />
  <metadata
     id="metadata7">
    <rdf:RDF>
      <cc:Work
         rdf:about="">
        <dc:format>image/svg+xml</dc:format>
        <dc:type
           rdf:resource="http://purl.org/dc/dcmitype/StillImage" />
        <dc:title></dc:title>
      </cc:Work>
    </rdf:RDF>
  </metadata>
  <g
     inkscape:label="Layer 1"
     inkscape:groupmode="layer"
     id="layer1"
     transform="translate(547.80171,-363.88205)">
    <g
       transform="translate(-363.11643,-165.02247)"
       id="layer1-94"
       inkscape:label="Layer 1">
      <g
         inkscape:label="Layer 1"
         id="layer1-9"
         transform="matrix(11.38147,0,0,11.38147,-421.20645,-7642.6347)">
        <path
           style="font-size:13px;font-style:normal;font-variant:normal;font-weight:900;font-stretch:normal;text-align:start;line-height:125%;letter-spacing:4.07000017px;word-spacing:0px;writing-mode:lr-tb;text-anchor:start;fill:#5d759d;fill-opacity:1;stroke:none;font-family:Univers LT Std 85 XBlk;-inkscape-font-specification:Univers LT Std 85 XBlk Heavy"
           d="m 20.78125,718.21875 0,9.375 3.71875,0 0,-3.4375 1.59375,0 0,3.4375 3.71875,0 0,-9.375 -3.71875,0 0,3.15625 -1.59375,0 0,-3.15625 -3.71875,0 z"
           id="path3985"
           inkscape:connector-curvature="0" />
        <path
           style="font-size:13px;font-style:normal;font-variant:normal;font-weight:900;font-stretch:normal;text-align:start;line-height:125%;letter-spacing:4.07000017px;word-spacing:0px;writing-mode:lr-tb;text-anchor:start;fill:#5d759d;fill-opacity:1;stroke:none;font-family:Univers LT Std 85 XBlk;-inkscape-font-specification:Univers LT Std 85 XBlk Heavy"
           d="m 35.21875,718.21875 0,9.375 7.25,0 0,-2.4375 -3.6875,0 0,-1.0625 3.28125,0 0,-2.4375 -3.28125,0 0,-1 3.5625,0 0,-2.4375 -7.125,0 z"
           id="path3987"
           inkscape:connector-curvature="0" />
        <path
           style="font-size:13px;font-style:normal;font-variant:normal;font-weight:900;font-stretch:normal;text-align:start;line-height:125%;letter-spacing:4.07000017px;word-spacing:0px;writing-mode:lr-tb;text-anchor:start;fill:#5d759d;fill-opacity:1;stroke:none;font-family:Univers LT Std 85 XBlk;-inkscape-font-specification:Univers LT Std 85 XBlk Heavy"
           d="m 49.5625,718.21875 -3,9.375 3.5625,0 0.375,-1.5 2.71875,0 0.34375,1.5 3.84375,0 -3,-9.375 -4.84375,0 z m 2.3125,2.0625 0.03125,0 0.75,3.53125 -1.59375,0 0.8125,-3.53125 z"
           id="path3989"
           inkscape:connector-curvature="0" />
        <path
           style="font-size:13px;font-style:normal;font-variant:normal;font-weight:900;font-stretch:normal;text-align:start;line-height:125%;letter-spacing:4.07000017px;word-spacing:0px;writing-mode:lr-tb;text-anchor:start;fill:#5d759d;fill-opacity:1;stroke:none;font-family:Univers LT Std 85 XBlk;-inkscape-font-specification:Univers LT Std 85 XBlk Heavy"
           d="m 61.90625,718.21875 0,9.375 3.65625,0 0,-3.34375 0.40625,0 c 0.300451,0 0.520829,0.0589 0.65625,0.15625 0.135412,0.0973 0.24316,0.26302 0.28125,0.5 0.01692,0.10579 0.03238,0.39942 0.09375,0.84375 0.06136,0.44434 0.1346,0.79964 0.1875,1.09375 0.05289,0.29411 0.11979,0.53841 0.1875,0.75 l 3.625,0 c -0.165049,-0.53743 -0.30893,-1.20817 -0.40625,-2.03125 -0.09734,-0.82308 -0.17221,-1.31803 -0.21875,-1.5 -0.09311,-0.36393 -0.24187,-0.64697 -0.5,-0.84375 -0.258146,-0.19677 -0.61394,-0.3327 -1.0625,-0.375 0.668611,-0.16081 1.120597,-0.43586 1.40625,-0.8125 0.285636,-0.37662 0.437491,-0.86197 0.4375,-1.4375 -9e-6,-0.85058 -0.272958,-1.44433 -0.8125,-1.8125 -0.539559,-0.36816 -1.321296,-0.56249 -2.375,-0.5625 l -5.5625,0 z m 3.65625,2.125 0.3125,0 c 0.402013,10e-6 0.70312,0.0711 0.90625,0.1875 0.20312,0.11638 0.312494,0.33465 0.3125,0.65625 -6e-6,0.63478 -0.39356,0.93751 -1.21875,0.9375 l -0.3125,0 0,-1.78125 z"
           id="path3991"
           inkscape:connector-curvature="0" />
        <path
           style="font-size:13px;font-style:normal;font-variant:normal;font-weight:900;font-stretch:normal;text-align:start;line-height:125%;letter-spacing:4.07000017px;word-spacing:0px;writing-mode:lr-tb;text-anchor:start;fill:#5d759d;fill-opacity:1;stroke:none;font-family:Univers LT Std 85 XBlk;-inkscape-font-specification:Univers LT Std 85 XBlk Heavy"
           d="m 79.90625,717.96875 c -1.375329,10e-6 -2.436363,0.2793 -3.1875,0.8125 -0.75114,0.53321 -1.125001,1.2767 -1.125,2.25 -10e-7,0.63477 0.166178,1.14779 0.46875,1.5625 0.302571,0.41472 0.805988,0.73014 1.5,0.9375 l 2.625,0.78125 c 0.414708,0.12272 0.624994,0.32455 0.625,0.625 -6e-6,0.21583 -0.08497,0.41439 -0.25,0.5625 -0.165044,0.14807 -0.389653,0.21875 -0.65625,0.21875 -0.334314,0 -0.566411,-0.11361 -0.71875,-0.3125 C 79.056312,725.22852 78.999996,724.98796 79,724.6875 l -3.5625,0 c 0,0.47396 0.06006,0.91309 0.21875,1.28125 0.158691,0.36816 0.391763,0.67351 0.65625,0.90625 0.264484,0.23275 0.587889,0.41227 0.96875,0.5625 0.380857,0.15023 0.749998,0.2511 1.15625,0.3125 0.406247,0.0613 0.869787,0.0937 1.34375,0.0937 0.677078,0 1.268711,-0.0606 1.8125,-0.1875 0.543775,-0.12695 1.031242,-0.30437 1.4375,-0.5625 0.406241,-0.25814 0.717439,-0.61019 0.9375,-1.03125 0.220043,-0.42106 0.343741,-0.90593 0.34375,-1.46875 -9e-6,-1.1722 -0.580412,-1.99479 -1.71875,-2.46875 -0.279304,-0.12272 -0.602709,-0.23583 -0.96875,-0.34375 -0.366055,-0.1079 -0.760097,-0.20882 -1.1875,-0.3125 -0.427414,-0.10367 -0.694014,-0.18485 -0.8125,-0.21875 -0.211592,-0.0635 -0.37142,-0.12985 -0.46875,-0.21875 -0.09734,-0.0889 -0.156253,-0.21418 -0.15625,-0.375 -3e-6,-0.15657 0.07487,-0.30256 0.21875,-0.40625 0.143876,-0.10372 0.372717,-0.15624 0.65625,-0.15625 0.533198,10e-6 0.7998,0.26075 0.8125,0.78125 l 3.3125,0 c -9e-6,-1.94237 -1.364265,-2.90624 -4.09375,-2.90625 z"
           id="path3993"
           inkscape:connector-curvature="0" />
        <path
           style="font-size:13px;font-style:normal;font-variant:normal;font-weight:900;font-stretch:normal;text-align:start;line-height:125%;letter-spacing:4.07000017px;word-spacing:0px;writing-mode:lr-tb;text-anchor:start;fill:#5d759d;fill-opacity:1;stroke:none;font-family:Univers LT Std 85 XBlk;-inkscape-font-specification:Univers LT Std 85 XBlk Heavy"
           d="m 88.6875,718.21875 0,2.53125 2.3125,0 0,6.84375 3.6875,0 0,-6.84375 2.34375,0 0,-2.53125 -8.34375,0 z"
           id="path3995"
           inkscape:connector-curvature="0" />
      </g>
    </g>
    <path
       style="font-size:108.90908813px;font-style:normal;font-variant:normal;font-weight:normal;font-stretch:normal;text-align:start;line-height:0%;letter-spacing:-1.1500001px;word-spacing:0px;writing-mode:lr-tb;text-anchor:start;fill:#4d4d4d;fill-opacity:1;stroke:none;font-family:Frutiger LT Std 55 Roman;-inkscape-font-specification:'Frutiger LT Std 55 Roman,'"
       d="m -327.4375,515 -10.21875,3.28125 0,12.84375 -12.53125,0 0,8.28125 12.53125,0 0,32.46875 c -2e-5,5.44413 1.46061,9.47495 4.4375,12.125 2.97685,2.65005 7.2121,3.96875 12.65625,3.96875 2.25118,0 5.12895,-0.48296 8.6875,-1.5 l 0,-8.71875 c -2.03411,1.3073 -4.3564,1.96875 -6.96875,1.96875 -2.4706,0 -4.52327,-0.88229 -6.15625,-2.625 -1.63304,-1.74268 -2.43752,-4.19048 -2.4375,-7.3125 l 0,-30.375 14.71875,0 0,-8.28125 -14.71875,0 0,-16.125 z"
       id="path3055"
       inkscape:connector-curvature="0" />
    <path
       style="font-size:108.90908813px;font-style:normal;font-variant:normal;font-weight:normal;font-stretch:normal;text-align:start;line-height:0%;letter-spacing:-1.1500001px;word-spacing:0px;writing-mode:lr-tb;text-anchor:start;fill:#4d4d4d;fill-opacity:1;stroke:none;font-family:Frutiger LT Std 55 Roman;-inkscape-font-specification:'Frutiger LT Std 55 Roman,'"
       d="m -278.75,529.8125 c -7.76848,6e-5 -14.05108,2.61571 -18.84375,7.84375 -4.7927,5.22813 -7.1875,11.97417 -7.1875,20.25 0,9.36604 2.3948,16.72585 7.1875,22.0625 4.79267,5.33667 11.97931,8 21.5625,8 1.45128,0 2.86954,-0.0736 4.25,-0.21875 1.38038,-0.14514 2.53011,-0.26643 3.4375,-0.375 0.90731,-0.10857 1.93265,-0.32942 3.09375,-0.65625 1.16101,-0.32682 1.99675,-0.56831 2.46875,-0.75 0.47191,-0.18169 1.25465,-0.47616 2.34375,-0.875 1.08899,-0.39883 1.74934,-0.64565 1.96875,-0.71875 l 0,-10.21875 c -1.45359,1.23419 -3.92621,2.45333 -7.375,3.6875 -3.44887,1.23418 -6.70115,1.875 -9.75,1.875 -5.00986,0 -9.31231,-1.7646 -12.90625,-5.25 -3.59398,-3.48538 -5.37502,-7.90801 -5.375,-13.28125 l 39.65625,0 c -5e-5,-20.91009 -8.19449,-31.37494 -24.53125,-31.375 z m -0.21875,8.28125 c 4.28525,5e-5 7.65661,1.46487 10.125,4.40625 2.46832,2.94146 3.7187,6.63323 3.71875,11.0625 l -28.75,0 c 0.43648,-4.21213 1.87537,-7.82496 4.34375,-10.875 2.46834,-3.04994 5.98915,-4.5937 10.5625,-4.59375 z"
       id="path3057"
       inkscape:connector-curvature="0" />
    <path
       style="font-size:108.90908813px;font-style:normal;font-variant:normal;font-weight:normal;font-stretch:normal;text-align:start;line-height:0%;letter-spacing:-1.1500001px;word-spacing:0px;writing-mode:lr-tb;text-anchor:start;fill:#4d4d4d;fill-opacity:1;stroke:none;font-family:Frutiger LT Std 55 Roman;-inkscape-font-specification:'Frutiger LT Std 55 Roman,'"
       d="m -240.28125,505 0,81.6875 10.21875,0 0,-81.6875 -10.21875,0 z"
       id="path3059"
       inkscape:connector-curvature="0" />
    <path
       style="font-size:108.90908813px;font-style:normal;font-variant:normal;font-weight:normal;font-stretch:normal;text-align:start;line-height:0%;letter-spacing:-1.1500001px;word-spacing:0px;writing-mode:lr-tb;text-anchor:start;fill:#4d4d4d;fill-opacity:1;stroke:none;font-family:Frutiger LT Std 55 Roman;-inkscape-font-specification:'Frutiger LT Std 55 Roman,'"
       d="m -190.21875,529.8125 c -7.76848,6e-5 -14.05108,2.61571 -18.84375,7.84375 -4.7927,5.22813 -7.18751,11.97417 -7.1875,20.25 -1e-5,9.36604 2.3948,16.72585 7.1875,22.0625 4.79267,5.33667 11.97931,8 21.5625,8 1.45129,0 2.86954,-0.0736 4.25,-0.21875 1.38038,-0.14514 2.5301,-0.26643 3.4375,-0.375 0.90731,-0.10857 1.93264,-0.32942 3.09375,-0.65625 1.16101,-0.32682 1.99675,-0.56831 2.46875,-0.75 0.47191,-0.18169 1.25465,-0.47616 2.34375,-0.875 1.08899,-0.39883 1.71808,-0.64565 1.9375,-0.71875 l 0,-10.21875 c -1.45359,1.23419 -3.89497,2.45333 -7.34375,3.6875 -3.44887,1.23418 -6.70115,1.875 -9.75,1.875 -5.00987,0 -9.31231,-1.7646 -12.90625,-5.25 -3.59398,-3.48538 -5.37501,-7.90801 -5.375,-13.28125 l 39.625,0 c -6e-5,-20.91009 -8.16324,-31.37494 -24.5,-31.375 z m -0.21875,8.28125 c 4.28525,5e-5 7.6566,1.46487 10.125,4.40625 2.46831,2.94146 3.7187,6.63323 3.71875,11.0625 l -28.75,0 c 0.43649,-4.21213 1.87537,-7.82496 4.34375,-10.875 2.46833,-3.04994 5.98914,-4.5937 10.5625,-4.59375 z"
       id="path3061"
       inkscape:connector-curvature="0" />
    <path
       style="font-size:108.90908813px;font-style:normal;font-variant:normal;font-weight:normal;font-stretch:normal;text-align:start;line-height:0%;letter-spacing:-1.1500001px;word-spacing:0px;writing-mode:lr-tb;text-anchor:start;fill:#4d4d4d;fill-opacity:1;stroke:none;font-family:Frutiger LT Std 55 Roman;-inkscape-font-specification:'Frutiger LT Std 55 Roman,'"
       d="m -160.59375,531.125 19.9375,55.5625 12.21875,0 19.90625,-55.5625 -10.21875,0 -15.375,45.3125 -0.21875,0 -15.03125,-45.3125 -11.21875,0 z"
       id="path3063"
       inkscape:connector-curvature="0" />
    <path
       style="font-size:108.90908813px;font-style:normal;font-variant:normal;font-weight:normal;font-stretch:normal;text-align:start;line-height:0%;letter-spacing:-1.1500001px;word-spacing:0px;writing-mode:lr-tb;text-anchor:start;fill:#4d4d4d;fill-opacity:1;stroke:none;font-family:Frutiger LT Std 55 Roman;-inkscape-font-specification:'Frutiger LT Std 55 Roman,'"
       d="m -99.09375,507.15625 0,11.5625 11.53125,0 0,-11.5625 -11.53125,0 z m 0.65625,23.96875 0,55.5625 10.21875,0 0,-55.5625 -10.21875,0 z"
       id="path3065"
       inkscape:connector-curvature="0" />
    <path
       style="font-size:108.90908813px;font-style:normal;font-variant:normal;font-weight:normal;font-stretch:normal;text-align:start;line-height:0%;letter-spacing:-1.1500001px;word-spacing:0px;writing-mode:lr-tb;text-anchor:start;fill:#4d4d4d;fill-opacity:1;stroke:none;font-family:Frutiger LT Std 55 Roman;-inkscape-font-specification:'Frutiger LT Std 55 Roman,'"
       d="m -56.125,529.8125 c -5.807527,6e-5 -10.525738,1.46599 -14.15625,4.40625 -3.63053,2.94036 -5.437503,7.19933 -5.4375,12.71875 -3e-6,2.90268 0.83042,5.41989 2.5,7.5625 1.669568,2.14267 3.675657,3.82835 6,5.0625 2.324319,1.23421 4.671447,2.37973 7.03125,3.46875 2.359764,1.08907 4.36165,2.36009 6.03125,3.8125 1.669549,1.45245 2.499972,3.09155 2.5,4.90625 -2.8e-5,2.75863 -1.050195,4.79177 -3.15625,6.0625 -2.106103,1.27074 -4.522647,1.90625 -7.28125,1.90625 -1.670699,0 -3.750406,-0.37228 -6.21875,-1.0625 -2.468367,-0.6902 -4.643428,-1.64081 -6.53125,-2.875 l -0.53125,9.15625 c 3.775649,2.03186 8.859732,3.03125 15.25,3.03125 5.373196,0 9.943064,-1.49187 13.71875,-4.46875 3.77562,-2.97687 5.656212,-7.25337 5.65625,-12.84375 -3.8e-5,-3.26601 -0.829354,-6.0247 -2.5,-8.3125 -1.670719,-2.28774 -3.676807,-4.05236 -6,-5.25 -2.323254,-1.19759 -4.67149,-2.29544 -7.03125,-3.3125 -2.359806,-1.017 -4.361693,-2.23614 -6.03125,-3.6875 -1.669592,-1.45129 -2.500015,-3.21589 -2.5,-5.25 -1.5e-5,-2.17805 0.924656,-3.83779 2.8125,-5 1.88781,-1.16212 4.210106,-1.74995 6.96875,-1.75 1.307273,5e-5 3.166127,0.31935 5.5625,0.9375 2.396313,0.61824 4.130778,1.25487 5.21875,1.90625 L -43.375,532 c -4.863626,-1.45127 -9.118394,-2.18744 -12.75,-2.1875 z"
       id="path3067"
       inkscape:connector-curvature="0" />
    <path
       style="font-size:108.90908813px;font-style:normal;font-variant:normal;font-weight:normal;font-stretch:normal;text-align:start;line-height:0%;letter-spacing:-1.1500001px;word-spacing:0px;writing-mode:lr-tb;text-anchor:start;fill:#4d4d4d;fill-opacity:1;stroke:none;font-family:Frutiger LT Std 55 Roman;-inkscape-font-specification:'Frutiger LT Std 55 Roman,'"
       d="m -28.875,507.15625 0,11.5625 11.53125,0 0,-11.5625 -11.53125,0 z m 0.65625,23.96875 0,55.5625 10.25,0 0,-55.5625 -10.25,0 z"
       id="path3069"
       inkscape:connector-curvature="0" />
    <path
       style="font-size:108.90908813px;font-style:normal;font-variant:normal;font-weight:normal;font-stretch:normal;text-align:start;line-height:0%;letter-spacing:-1.1500001px;word-spacing:0px;writing-mode:lr-tb;text-anchor:start;fill:#4d4d4d;fill-opacity:1;stroke:none;font-family:Frutiger LT Std 55 Roman;-inkscape-font-specification:'Frutiger LT Std 55 Roman,'"
       d="m 24.15625,529.8125 c -8.422133,6e-5 -15.2719298,2.74232 -20.5,8.1875 -5.2280958,5.44528 -7.843755,12.41106 -7.84375,20.90625 -5e-6,8.13187 2.6945818,14.99808 8.03125,20.625 5.3366422,5.62692 12.107511,8.4375 20.3125,8.4375 8.204922,0 14.949852,-2.81058 20.25,-8.4375 5.300042,-5.62692 7.937439,-12.49313 7.9375,-20.625 C 52.343689,550.41106 49.728029,543.44528 44.5,538 39.271863,532.55482 32.505196,529.81256 24.15625,529.8125 z m 0,8.28125 c 5.226942,5e-5 9.403889,2.07976 12.5625,6.21875 3.158518,4.13908 4.749949,9.00342 4.75,14.59375 -5.1e-5,5.51949 -1.491924,10.35677 -4.46875,14.53125 -2.976918,4.1745 -7.253424,6.28125 -12.84375,6.28125 -5.663513,0 -9.991898,-2.10675 -12.96875,-6.28125 -2.9768924,-4.17448 -4.4687659,-9.01176 -4.46875,-14.53125 -1.59e-5,-5.59033 1.586105,-10.45467 4.78125,-14.59375 3.195104,-4.13899 7.429241,-6.2187 12.65625,-6.21875 z"
       id="path3071"
       inkscape:connector-curvature="0" />
    <path
       style="font-size:108.90908813px;font-style:normal;font-variant:normal;font-weight:normal;font-stretch:normal;text-align:start;line-height:0%;letter-spacing:-1.1500001px;word-spacing:0px;writing-mode:lr-tb;text-anchor:start;fill:#4d4d4d;fill-opacity:1;stroke:none;font-family:Frutiger LT Std 55 Roman;-inkscape-font-specification:'Frutiger LT Std 55 Roman,'"
       d="m 93.28125,529.8125 c -3.919715,6e-5 -7.56602,0.90299 -10.90625,2.71875 -3.340283,1.81587 -5.756827,4.2843 -7.28125,7.40625 l -0.21875,0 0,-8.8125 -9.90625,0 0,55.5625 10.21875,0 0,-25.71875 c -1.9e-5,-7.04387 1.423547,-12.61623 4.21875,-16.71875 2.795157,-4.10243 7.023984,-6.1562 12.6875,-6.15625 4.356146,0.29253 7.382261,2.00304 9.125,5.125 1.74265,3.12205 2.62495,8.00923 2.625,14.6875 l 0,28.78125 10.25,0 0,-33 c -6e-5,-15.90026 -6.9441,-23.87494 -20.8125,-23.875 z"
       id="path3073"
       inkscape:connector-curvature="0" />
  </g>
</svg>
