<?xml version="1.0" encoding="UTF-8"?>
<svg id="Layer_2" data-name="Layer 2" xmlns="http://www.w3.org/2000/svg" viewBox="0 0 430.63 430.51">
  <defs>
    <style>
      .cls-1 {
        fill: #1e1e1e;
      }

      .cls-2 {
        fill: #fe7262;
      }

      .cls-3 {
        fill: #070f08;
      }

      .cls-4 {
        fill: #00eb62;
      }

      .cls-5 {
        fill: #f24e1d;
      }

      .cls-6 {
        fill: #04cf81;
      }

      .cls-7 {
        fill: #1cbbfe;
      }

      .cls-8 {
        fill: #a159fe;
      }
    </style>
  </defs>
  <g id="Layer_1-2" data-name="Layer 1">
    <g>
      <path class="cls-1" d="M414.89,384.81c-13.44,23.17-41.23,38.98-67.63,42.83-81.91-.07-165.48,5.3-247.49,1.51-59.19-2.74-95.36-38.07-98.55-97.45,3.05-77.14-3.94-157.24.05-234.03C4.36,38.11,43.78,1.49,102.72,1.12c74.57,2.84,151.76-3.64,226.03.06,59.55,2.97,97.12,35.55,100.55,96.45-3.29,77.35,4.24,158.13,0,235.08-.96,17.45-5.61,36.93-14.41,52.1Z"/>
      <path class="cls-2" d="M264.26,82.16c36.93,2.28,54.01,46.79,29.97,74.47-7.82,9.01-18.46,13.32-29.97,15.53-2.8,2.81-10.37,3.08-13,0-11.97.85-23.97.85-36,0-.83.51-1.68.98-2.58,1.33-3.24,1.24-38.34,1.11-41.83-.11-.9-.31-1.75-.75-2.59-1.22.07-.79.32-1.97.88-2.02,11.77-1.05,33.45-2,44.88-.95l1.24,1.97-2-.69v-87.1l2-1.21c16.36-.9,32.69-.9,49,0Z"/>
      <path class="cls-5" d="M264.26,81.16v1c-15.98-.99-32.92.73-49,0v89l-47,1c-.24,2.01-1.23,1.92-2,0-13.88-2.6-26.65-8.99-34.19-21.31-18.54-30.25,1.75-66.77,36.19-69.69h96Z"/>
      <path class="cls-8" d="M166.26,172.16c.66-.05,1.34.03,2,0,15.22-.76,31.64,0,47,0,.97,12.75.97,25.41,0,38,3.11,1.69,2.71,11.02,0,13v39c-.28.87-.62.86-1,0h-49c-17.61-3.22-33.34-14.49-38.26-32.24-7.71-27.82,10.19-55.54,39.26-57.76Z"/>
      <path class="cls-6" d="M164.26,262.16h51c0,16.8,2.55,46.7-3.13,61.37-13.85,35.78-64.65,38.43-82.05,4.31-13.93-27.31,3.7-62.5,34.18-65.68Z"/>
      <path class="cls-7" d="M264.26,172.16c36.64,2.74,54.34,47.1,30.02,74.52-25.44,28.7-74.18,14.02-79.02-23.52-.5-3.86.11-8.9,0-13-.14-4.68.86-8.34,3-11-.36-.37-.65-.74-.69-1.14-.57-5.83,18.88-25.97,26.69-23.86,1.42-1.11,3.75-1.77,7-2,4.26.09,8.81-.31,13,0Z"/>
      <path class="cls-4" d="M214.26,262.16h-50c.33-.03.67.03,1,0,15.77-1.24,33.06.92,49,0Z"/>
      <path class="cls-3" d="M251.26,172.16c-1.68,1.94-5.15,1.26-7,2-8.59.97-17.26,1.34-26,1.11.01,8.29.02,16.25,0,23.89l-3,11c-.33-12.64.25-25.36,0-38,11.97,0,24.03-.25,36,0Z"/>
      <path class="cls-1" d="M244.26,174.16c-6.4,2.57-15.68,10.07-19.98,15.52-1.3,1.65-5.3,9.31-6.02,9.48-.07.02-.39-.88-.86-.87l-1.13,1.87-.02-27c9.17.59,19.11-1.24,28.01,1.01Z"/>
    </g>
  </g>
</svg>