<?xml version="1.0" encoding="UTF-8"?>
<svg id="Layer_2" data-name="Layer 2" xmlns="http://www.w3.org/2000/svg" viewBox="0 0 605.3 307.64">
  <defs>
    <style>
      .cls-1 {
        fill: #fff;
      }
    </style>
  </defs>
  <g id="Layer_1-2" data-name="Layer 1">
    <g>
      <path class="cls-1" d="M605.3,266.14c-3.05,4.26-5.89,5.99-11.07,6.85-2.45.41-18.57.18-11.52,5.37,3.25,2.4,9.73,1.39,10.53,5.22,1.76,8.47-14.48,3.28-17.77-1.13s-3.07-11.09,2.08-14.2c6.08-3.68,15.21-1.46,19.2-4.07,2.14-1.4,2.4-5.53.37-7.15-9.3-7.42-28.57,11.27-37.41,3.46-4.12-3.63-3.55-9.59-.57-13.79,2.78-3.91,10.11-6.82,8.31-12.81-.43-1.44-3.13-3.31-4.62-3.55-15.24-2.48-10.88,24.93-27.58,22.54-6.61-.95-7.45-9.55-10.41-10.38-2.57-.72-5.23,5.39-9.2,2.32-4.26-3.29,2.22-9.04,5.99-9.84,7.82-1.67,11.49,4.03,14.49,10.13,2.03,1.3,4.07-1.81,4.92-3.29,2.04-3.56,3.09-7.77,5.63-11.35,13.26-18.7,38.69-1.54,24.99,14.93-1.36,1.64-9.57,7.15-6.63,9.14,1.87,1.28,12.51-4.09,15.25-4.93,8.91-2.72,18.72-3.32,25.02,4.58v11.95Z"/>
      <path class="cls-1" d="M605.3,13.98v22.64c-1.89,2.98-8.3,15.41-12.85,9.4-2.72-3.6,4.39-9.53,6.06-13.36,3.92-9.01.65-16.74-7.46-21.7-14.14-8.65-26.67,5.19-16.81,18.07,2.74,3.58,6.16,5.7,9.94,1.88,6.89-6.97-2.27-7.4-3.56-10.14-2.76-5.86,3.96-6.78,8.3-3.9,8.25,5.48,5.74,16.66-1.63,21.55-15.46,10.25-31.12-15.94-20.96-29.76,11.22-15.28,29.72-7.44,38.99,5.34Z"/>
      <path class="cls-1" d="M171.41,307.64l-14.2-18.85c-1.03-3.42,2.02-6.26,5.38-4.72,2.81,1.29,8.8,11.59,11.65,14.13l8.14-10.71c6.06-4.76,10.92,7.18,15.75,10.09,4.18-4.7,6.16-10.73,12.89-5.35,1.12.89,9.31,8.67,9.58,9.28,1.55,3.5-.51,4.63-3.3,6.13h-.63l-9.75-8.06c-2.73,1.59-5.32,7.03-8.23,7.42-5.2.68-10.63-10.7-13.14-10.68l-7.87,11.33h-6.29Z"/>
      <path class="cls-1" d="M482.05,307.64l-14.2-18.85c-1.03-3.42,2.02-6.26,5.38-4.72,2.81,1.29,8.8,11.59,11.65,14.13l8.43-11.05c6.26-3.71,10.64,7.52,15.46,10.42,4-4.42,6.06-10.64,12.55-5.64,1.62,1.25,7.98,7.18,9.14,8.64,3.13,3.92-.61,8-5.03,6.11-1.53-.65-6.23-7.11-7.88-7.1-3.48,2.16-5.4,8.21-10.02,7.44-2.73-.45-7.81-8.32-10.07-10.09-.55-.43-.72-.81-1.58-.6l-7.56,11.31h-6.29Z"/>
      <path class="cls-1" d="M278.94,307.64c-4.52-.79-14.14-8.59-10.42-13.25,4.99-6.26,7.02,5.38,13.3,5.66,12.1.55,9.28-14.43,20.08-14.47,4.73-.02,8.15,2.73,10.26,6.77,2.63,5.01,5.46,17.09-4.15,13.26-1.18-2.37-2.04-13.08-6.03-12.33-1.87.35-4.59,7.65-6.67,9.67-2.63,2.55-6.21,3.34-9.45,4.69h-6.92Z"/>
      <path class="cls-1" d="M399.04,307.64h-10.69c.41-1.41,8.54-7.84,7.54-8.8l-10.36-1.9,2.19,10.7h-8.17c.26-3.88-5.04-16.04-2.37-18.72.96-.63,2.18-.82,3.31-.83,4.42-.04,15.62,2.93,20.44,4.13,2.74.68,6.67.83,6.9,4.45.23,3.5-7.11,7.87-8.8,10.96Z"/>
      <path class="cls-1" d="M88.4,307.64h-10.69c.41-1.41,8.54-7.84,7.54-8.8l-10.36-1.9,2.19,10.7h-8.17c.26-3.88-5.04-16.04-2.37-18.72.96-.63,2.18-.82,3.31-.83,4.42-.04,15.62,2.93,20.44,4.13,2.74.68,6.67.83,6.9,4.45.23,3.5-7.11,7.87-8.8,10.96Z"/>
      <path class="cls-1" d="M131.79,307.64h-13.21c-.09-4.94,4.33-4.43,7.48-6.04,6.66-3.39,9.3-12.96,4.74-19.07-1.63-2.19-7.91-5.52-3.15-8.89,5.21-3.69,11.26,6.01,12.51,10.22,2.86,9.69-1.59,17.24-8.37,23.78Z"/>
      <path class="cls-1" d="M442.43,307.64h-13.21c-.09-4.94,4.33-4.43,7.48-6.04,6.66-3.39,9.3-12.96,4.74-19.07-1.63-2.19-7.91-5.52-3.15-8.89,5-3.55,10.77,5.28,12.14,9.33,3.43,10.13-.83,17.72-8,24.67Z"/>
      <path class="cls-1" d="M605.3,180.62v28.3c-9.73,1.91-5.05-5.14-4.47-9.82,1.19-9.55-3.24-19.24-11.43-24.27-2.58-1.59-9.02-2.41-6.14-7.14,1.78-2.93,4.66-1.8,7.19-.82,6.64,2.57,10.98,8.1,14.86,13.75Z"/>
      <path class="cls-1" d="M605.3,239.1c-4.47-.77-17.93,3.57-21.11,1.3-.68-.48-1.46-2.06-1.51-2.91-.06-1,5.18-17.62,5.95-19.15,1.38-2.7,3.66-4.28,6.31-1.89,3.83,3.46-2.89,11.67-2.21,16.36l12.57-1.88v8.17Z"/>
      <path class="cls-1" d="M605.3,52.96v6.29c-7.94,8.35-23.03,7.03-27.79-3.97-1.69-3.91-2.65-11.06,3.56-9.85,3.02.59,2.4,3.73,3.16,5.65,1.93,4.86,6.61,6.88,11.66,5.37,3.4-1.01,4.84-6.02,9.4-3.49Z"/>
      <path class="cls-1" d="M150.66,307.64h-8.8c3.81-6.78,6.03-12.23,4.87-20.27-.56-3.89-5.6-9.27-2.33-12.09,6.7-5.78,10.45,10.85,10.66,15.08.29,5.91-1.72,12.11-4.39,17.28Z"/>
      <path class="cls-1" d="M461.3,307.64h-8.8c3.81-6.78,6.03-12.23,4.87-20.27-.56-3.89-5.6-9.27-2.33-12.09,4.02-3.46,6.69,1.25,8.06,4.47,3.99,9.35,2.96,19.1-1.8,27.89Z"/>
      <path class="cls-1" d="M605.3,129.05v7.55c-3.05.08-8.24-2.88-9.97.45-1.5,5.24,11.33,3.51,7.77,10.87-2.63,5.44-16.09-2.74-16.04-10.39.06-9.16,11.24-11.56,18.24-8.48Z"/>
      <path class="cls-1" d="M605.3,303.86l-8.8,3.77h-6.92c-4.44-1.04-13.59-7.91-10.72-12.92,3.81-6.66,7.34,2.27,9.49,3.78,7.48,5.25,14.08-2.85,16.95-9.09v14.46Z"/>
      <path class="cls-1" d="M53.82,307.64h-28.93c1.89-5.86,3.26-11.44,10.7-9.75,2.31.52,12.59,5.16,14.89,6.48,1.39.8,2.51,1.9,3.33,3.27Z"/>
      <path class="cls-1" d="M364.46,307.64h-28.93c2.11-5.81,3.07-11.48,10.7-9.75,2.31.52,12.59,5.16,14.89,6.48,1.39.8,2.51,1.9,3.33,3.27Z"/>
      <path class="cls-1" d="M605.3,91.95c-11.03-5.79-11.03-20,0-25.78v25.78Z"/>
      <path class="cls-1" d="M423.57,307.64h-8.17c1.49-3.37,5.47-16.17,10.7-10.39,3.08,3.4-1.43,7-2.53,10.39Z"/>
      <path class="cls-1" d="M112.93,307.64h-8.17c1.6-3.35,5.05-15.53,10.39-10.7,3.57,3.23-1.09,7.22-2.21,10.7Z"/>
      <path class="cls-1" d="M605.3,157.98v6.29c-8.45,3.34-8.71-9.95,0-6.29Z"/>
      <path class="cls-1" d="M292.55,251.9c5.91,6.08,3.34,16.73-4.47,19.92-3.44,1.4-17.42,1.25-17.92,4.13-.82,4.79,16.53,3.15,11.96,10.66-2.4,3.94-14.09-.57-16.73-3.47-3.21-3.54-3.9-9.55-.63-13.26,5.4-6.13,16.6-2.6,21.34-5.7,2.14-1.4,2.4-5.53.37-7.15-9.3-7.42-28.57,11.27-37.41,3.46-2.6-2.3-3.24-5.75-2.76-9.07.96-6.72,9.07-8.82,10.33-13.55,1.55-5.82-3.46-8.63-8.69-7.43-10.27,2.35-8.29,24.84-23.36,22.46-6.46-1.02-7.56-9.6-10.39-10.4-2.33-.66-3.35,2.3-4.86,2.77-6.69,2.05-7.51-5.98-1.02-9.2,8.53-4.23,13.94,1.83,17.18,9.05,2.03,1.3,4.07-1.81,4.92-3.29,3.14-5.48,4.02-11.31,9.53-15.62,14.67-11.46,33.13,4.73,21.09,19.2-1.36,1.64-9.57,7.15-6.63,9.14,1.88,1.28,12.1-3.93,14.78-4.77,7.04-2.2,17.71-3.69,23.38,2.13Z"/>
      <path class="cls-1" d="M197.82,108.92c.68.86,18.34,4.33,21.26,5.47,2.74,1.08,3.79,2.19,2.98,5.24-.81,3.02-11.09,19.8-10.4,20.73,6.17,2.99,15.44,4.79,21.19,8.06,2.35,1.34,3.52,2.94,2.36,5.76-1.61,3.93-9.31,10.58-11.6,14.8,2.65,1.67,8.55,1.57,10.71,3.74,2.8,2.81-.07,7.05-3.95,6.5-1.88-.26-14.33-3.82-15.54-4.62s-2-2.3-1.91-3.69c.16-2.49,9.73-12.59,11.63-15.45l.28-1.85c-3.48-1.8-21.13-6.94-22.28-9.48-.57-1.25-.48-2.52-.03-3.78l9.76-19.13c-.3-1.41-19.36-4.94-22.15-6.17-2.5-1.1-3.03-3.66-2.03-6.1.34-.84,9.49-13.35,10.35-14.17,2.44-2.3,6.1-2.03,6.8,1.4.73,3.58-5.67,9.48-7.43,12.73Z"/>
      <path class="cls-1" d="M139.18,134.86c18.34-2.88,29.07,15.52,19.78,31.1-9.43,15.81-30.01,18.34-42.29,4.32-2.77-3.17-1.1-7.66,2.83-7.28,1.4.14,7.58,5.75,10.62,7.03,5.05,2.13,8.53,2.68,13.66.23,10.85-5.2,16.32-24.15,2.51-27.71-6.79-1.75-20.75,5.27-15.01,12.5,6.26,7.88,8.12-1.64,10.74-2.9,4.02-1.93,6.76,1.91,5.21,5.81-7.42,18.58-34.77.3-21.69-15.37,2.66-3.18,9.6-7.09,13.65-7.73Z"/>
      <path class="cls-1" d="M22.86,68.85c17.8-2.61,32.65,18.86,25.42,34.85-1.85,4.1-10.09,13.55-14.4,14.54-3.48.79-6.14-1.58-5.08-5.09.48-1.6,10.35-7.54,12.58-13.21,4.91-12.48-10.17-30.26-22.44-21.19-7.75,5.73-3.98,24.39,5.17,20.88,1.01-.39,4.16-2.69,4.47-3.73,1.27-4.28-5.65-4.82-4.16-9.79,1.34-4.47,6.57-1.75,8.7.47,12.35,12.87-12,30.91-22.56,15.01-7.76-11.68-2.75-30.54,12.32-32.74Z"/>
      <path class="cls-1" d="M269.35.31c14.82-1.91,29.5,13.42,27.76,28.38-.45,3.88-6.76,17.4-10.44,18.5-2.72.81-5.95-.76-5.66-3.88.17-1.85,5.6-7.65,6.87-10.66,2.59-6.15,2.46-11.38-1.75-16.73-5.21-6.61-16.16-11.27-22.92-4.17-5.25,5.51-3.2,15.19,2.53,19.53,6.27,4.75,11.84-3.77,9.49-6.98-.81-1.1-3.04-1.43-4.05-2.24-4.61-3.66.28-9.75,7.1-5.22,14.81,9.83-5.08,34.25-19.45,18.82-11.33-12.18-7.03-33.09,10.53-35.36Z"/>
      <path class="cls-1" d="M124.66,105.37c2.61,2.61,4.52,13.38,5.66,13.66,4.59,1.11,9.66-10.52,18.18-6.99,3.16,1.31,3.08,5.88.1,7.13-1.75.73-2.78-.12-4.04.31-5.37,1.8-7.96,10.14-16.68,6.9-7.49-2.78-6.62-14.7-9.06-15.5-3.11-1.03-8.77,7.9-15.61,7.52-5.8-.32-7.71-4.96-9.32-9.59-.82-2.38-.66-8.34-4.83-6.46-4.75,2.15-6.48,8.34-14.13,7.19-9.25-1.39-7.12-11.8-10.38-15.88-.74-.93-2.07-.65-2.61-1.48-2.94-4.52,2.13-9.07,7.62-4.32,4.06,3.51,3.96,13.27,6.85,13.89,2.64.57,8.36-8.74,15.29-7.78,8.78,1.22,7.81,9.2,10.41,14.79,2.16,4.64,7.03-2.44,9.99-4.11,4.15-2.35,8.89-2.93,12.57.73Z"/>
      <path class="cls-1" d="M151.75,199.01c4.63-.77,8.84.96,12.69,3.36,2.93,1.83,17.58,13.31,9.04,15.85-4.08,1.21-7.29-4.74-10.23-7.11-2.4-1.93-8.02-5.71-10.93-4.01-5.06,2.96-1.9,10.81-1.63,15.31.65,10.56-1.96,23.96-12.16,29.4-12.68,6.76-30.22-3.21-29.38-18.03.23-4.07,2.46-10.85,7.77-9.04,3.69,1.26.28,7.19.07,9.29-1.11,11.25,15.59,17.32,22.76,5.78,7.05-11.34,0-20.87,2.54-31.42.91-3.79,5.51-8.74,9.46-9.39Z"/>
      <path class="cls-1" d="M200.18,16.03c2.6-.35,5.91-.79,7.14,2,3.28,7.45-12.87,4.05-14.4,10.86-1.55,6.9,6.28,10.15,10.26,14,6.75,6.52,10.63,18.17,2.83,25.49-6.29,5.9-23.46,6.16-19.85,17.94,1.09,3.55,9.08,4.15,6.04,9.13-3.19,5.24-11.07-1.78-12.87-5.45-4.66-9.5.85-17.75,9.46-21.86,6.08-2.9,14.29-2.92,13.43-11.73-.77-7.86-11.17-11.27-14.98-17.72-6.71-11.36,1.16-21.1,12.94-22.67Z"/>
      <path class="cls-1" d="M510.82,16.03c2.6-.35,5.91-.79,7.14,2,3.28,7.45-12.87,4.05-14.4,10.86-1.55,6.9,6.28,10.15,10.26,14,6.73,6.5,10.58,18.22,2.83,25.49-6.29,5.9-23.46,6.16-19.85,17.94,1.09,3.55,9.08,4.15,6.04,9.13-3.19,5.24-11.07-1.78-12.87-5.45-4.66-9.5.85-17.75,9.46-21.86,6.08-2.9,14.29-2.92,13.43-11.73-.77-7.86-11.17-11.27-14.98-17.72-6.71-11.36,1.16-21.1,12.94-22.67Z"/>
      <path class="cls-1" d="M494.46,221.63c11.63-1.85,16.5,13.1,10.93,21.56,4.33,2.5,8.91,5.4,9.83,10.83,2.57,15.04-18.53,20.45-24.27,8.55-3.12-6.48.22-9.71,2.36-15.52-4.99-3.01-9.59-6.42-9.84-12.84-.24-5.95,5.28-11.67,10.99-12.58ZM498.39,240.35c1.72-2.96,2.61-11.88-2.57-10.99-8.05,1.39-3.35,10.27,2.57,10.99ZM501.33,250.47c-4.67,4.13-5.56,12.45,2.91,10.5,6.68-1.54,2.57-10.45-2.91-10.5Z"/>
      <path class="cls-1" d="M183.82,221.63c11.63-1.85,16.5,13.1,10.93,21.56,4.33,2.5,8.91,5.4,9.83,10.83,2.67,15.64-19.74,20.39-24.68,7.7-2.41-6.2.83-9.19,2.77-14.68-6.86-3.57-12.3-10.27-8.66-18.23,1.45-3.17,6.38-6.64,9.8-7.18ZM187.75,240.35c1.73-2.96,2.61-11.88-2.57-10.99-7.94,1.37-3.51,10.31,2.57,10.99ZM190.69,250.47c-4.23,3.82-5.94,11.93,2.27,10.49,7.5-1.32,3.62-10.06-2.27-10.49Z"/>
      <path class="cls-1" d="M108.53,47.29c13.52,3.29,13.51,23.61-.94,25.16-13.57,1.46-18.75-11.96-10.4-21.7-8.93-3.66-14.67-14.6-6.27-22.01,13.03-11.49,25.83,6.06,17.61,18.55ZM98.94,32.94c-6.15.99-5.19,7.82.34,10.1,5.14,2.12,5.32-11.01-.34-10.1ZM104.54,54.28c-2.63.78-6.81,11.65,1.73,10.62,9.14-1.1,2.7-11.93-1.73-10.62Z"/>
      <path class="cls-1" d="M419.16,47.29c11.23,2.93,14.37,18.83,2.94,24.01-13.93,6.31-24.46-9.48-14.28-20.55-8.93-3.66-14.67-14.6-6.27-22.01,13.07-11.52,25.75,6.08,17.61,18.55ZM409.58,32.94c-6.15.99-5.2,7.84.34,10.1s5.44-11.03-.34-10.1ZM415.18,54.28c-2.63.78-6.81,11.65,1.73,10.62,9.14-1.1,2.7-11.93-1.73-10.62Z"/>
      <path class="cls-1" d="M49.9,142.41c.69.69.72,2.31.8,3.28.65,7.75.64,21.85,0,29.61-.41,4.98-2.93,4.61-7.12,3.29-7.69-2.44-26.75-10.29-33.59-14.2-5.62-3.21-2.19-6.36,1.9-8.41,6.98-3.5,25.73-12.23,32.61-13.92,1.54-.38,4.16-.89,5.4.35ZM43.13,169.93v-18.86l-21.38,9.12,21.38,9.74Z"/>
      <path class="cls-1" d="M561.74,107.14c2.44-.44,4.85,2.21,6.75,3.69,3.93,3.06,9.29,7.59,12.92,10.98,3.04,2.85,6.1,4.57,3.14,8.81-3.02,4.32-10.98,13.5-14.77,17.3-4.71,4.71-5.48,2.88-10.05-.65-5.74-4.43-10.73-9.94-16.72-14.09-1.65-2.85-.26-4.69,1.32-6.95,2.92-4.18,11.09-13.84,14.74-17.33.73-.7,1.67-1.58,2.69-1.77ZM562.85,116.49l-10.96,13.42c1.71,1.76,11.91,11.3,13.39,11.01l11.06-12.81-13.5-11.62Z"/>
      <path class="cls-1" d="M251.11,107.14c2.44-.44,4.85,2.21,6.75,3.69,3.93,3.06,9.29,7.59,12.92,10.98,3.04,2.85,6.1,4.57,3.14,8.81s-10.88,13.41-14.77,17.3c-2.38,2.38-3.53,3.89-6.92,1.88-2.87-1.7-16.78-13.49-19.13-16.08-2.57-2.84-1.24-4.95.6-7.48,3.18-4.39,10.91-13.67,14.74-17.33.73-.7,1.67-1.58,2.69-1.77ZM252.21,116.49l-10.96,13.42c1.71,1.76,11.91,11.3,13.39,11.01l11.06-12.81-13.5-11.62Z"/>
      <path class="cls-1" d="M473.06,233.56c3.19-.96,4.63.89,5.55,3.63,4.1,12.16,4.93,27.68,8.76,40.19-1.4,7.35-5.44,4.13-9.55,1.48-6.53-4.22-17.1-10.8-22.76-15.6-1.84-1.56-2.41-2.25-1.81-4.84,2.82-3.25,17.44-24.14,19.81-24.85ZM477.64,268.65l-5.34-21.99-9.75,12.55,15.09,9.44Z"/>
      <path class="cls-1" d="M162.42,233.56c3.19-.96,4.63.89,5.55,3.63,4.1,12.16,4.93,27.68,8.76,40.19.05,3.47-3.06,5.8-6.17,3.75-7.53-5.86-16.34-10.61-23.88-16.36-3.02-2.3-5.8-3.22-3.49-7.67,3.6-2.9,16.52-22.72,19.23-23.53ZM167,268.65l-5.34-21.99-9.75,12.55,15.09,9.44Z"/>
      <path class="cls-1" d="M107.95,186.85l14.9,3.35c2.53,2.53-1.56,15.06-1.48,18.74,4.94,2.92,15.19,1.17,14.07,8.93-.3,2.11-3.59,13.03-4.92,13.96-2.13,1.49-5.48.35-6.15-2-.76-2.67,3.17-9.42,2.15-10.89-2.87-1.91-12.26-2.31-13.31-5.61s3.13-15.47,1.99-17.05c-3.54-1.68-15.2-.92-15.99-5.45l5.41-27.03c1.94-4.34,7.68-3.16,7.64,1.32-.02,3.18-5.05,20.65-4.31,21.72Z"/>
      <path class="cls-1" d="M569.3,180.15c24.01-3.52,29.86,29.35,8.95,35.99-25.05,7.95-33.82-32.34-8.95-35.99ZM570.55,187.69c-12.5,2.02-11.28,23.82,4.73,21.07,12.51-2.15,10.03-23.46-4.73-21.07Z"/>
      <path class="cls-1" d="M258.67,180.15c23.98-3.51,29.89,29.34,8.95,35.99-25.06,7.95-33.82-32.35-8.95-35.99ZM259.91,187.69c-10.92,1.77-11.41,18.82-.64,21.08,17.62,3.7,17.72-23.85.64-21.08Z"/>
      <path class="cls-1" d="M41.08,210.95c14.72-2.32,26.66,10.16,21.4,24.54-7.41,20.24-39.49,13.04-35.42-10.27,1.14-6.51,7.49-13.25,14.02-14.28ZM42.96,218.5c-11.37,1.91-11.01,19.29,0,21.07,16.98,2.75,17.16-23.96,0-21.07Z"/>
      <path class="cls-1" d="M330.33,22.93c16.46-2.81,28.45,24.58,18.09,36.33-9.22,10.45-22.18-.33-26.11-10.37-3.32-8.47-3.44-24,8.02-25.96ZM331.59,30.43c-5.35,1.56-3.61,11.7-2.02,15.6,4.69,11.5,16.77,14.17,14.71-1.51-.63-4.79-7.03-15.75-12.7-14.09Z"/>
      <path class="cls-1" d="M19.7,22.93c16.48-2.75,28.46,24.58,18.09,36.33-9.22,10.45-22.18-.33-26.11-10.37-3.31-8.44-3.44-24.05,8.02-25.96ZM20.95,30.43c-5.35,1.56-3.61,11.7-2.02,15.6,4.69,11.5,16.77,14.17,14.71-1.51-.63-4.79-7.03-15.75-12.7-14.09Z"/>
      <path class="cls-1" d="M178.18,163.81c6.96-.73,17.99,1.82,19.02,10.18,2.48,20.22-33.98,28.88-39.95,12.91-4.52-12.1,10.45-22,20.93-23.1ZM180.09,171.32c-5.41.29-16.71,5.33-15.61,12.09,1.27,7.79,22.55,3.56,24.87-5.3,1.47-5.62-4.98-7.02-9.27-6.79Z"/>
      <path class="cls-1" d="M160.6,61.28c9.28-.67,14.32,8.55,9.2,16.16-2.06,3.07-10.97,7.5-10.08,10.75,1.33,4.89,15.61,4.14,19.17,11.69,4.49,9.5-4.52,15.65-13.45,14.71-6.07-.64-6.86-6.9-3.01-8.06,1.65-.5,12.04,2.28,9.31-3.26-1.4-2.84-14.79-3.46-18.44-10.49-2.28-4.39-1.91-8.55,1.24-12.36,2.06-2.49,9.38-6.33,9.4-8.9.03-6.05-10.37,2.6-12.36-3.43-1.67-5.02,5.39-6.54,9.04-6.81Z"/>
      <path class="cls-1" d="M486.93,49.68c-.59.57-4.17,1.3-5.21,1.4-7.22.66-23.57,1.99-30.19,1.26-7.48-.82-2.56-13.21.43-17.18,11.96-15.87,39.41-5.3,34.96,14.53ZM456.27,44.16l20.47-.6c3.07-.27,2.26-1.59.91-3.48-5.85-8.18-19.23-5.58-21.37,4.08Z"/>
      <path class="cls-1" d="M176.3,49.68c-.59.57-4.17,1.3-5.21,1.4-9.79.9-20.33.4-30.21,1.3-7.42-.97-2.45-13.36.45-17.22,11.96-15.87,39.41-5.3,34.96,14.53ZM145.63,44.16l20.47-.6c3.07-.27,2.26-1.59.91-3.48-5.85-8.18-19.23-5.58-21.37,4.08Z"/>
      <path class="cls-1" d="M425.27,285.45c-.49.62-2.29,1.45-3.19,1.42-5.43-2.35-31.9-5.67-34.65-8.8-2.64-3.02,1.88-10.34,4.17-12.77,10.47-11.11,29.53-6.94,34.04,7.88.93,3.06,1.7,9.65-.37,12.27ZM418.53,278.08c-.81-11.67-15.75-15.35-22.63-5.96-.28,1.32.53.86,1.38,1.11,6.8,2.02,14.37,2.96,21.25,4.85Z"/>
      <path class="cls-1" d="M114.63,285.45c-.49.62-2.29,1.45-3.19,1.42-5.46-2.42-31.88-5.64-34.65-8.8-2.64-3.02,1.88-10.34,4.17-12.77,10.47-11.11,29.53-6.94,34.04,7.88.93,3.06,1.7,9.65-.37,12.27ZM107.89,278.08c-.81-11.67-15.75-15.35-22.63-5.96-.28,1.32.53.86,1.38,1.11,6.8,2.02,14.37,2.96,21.25,4.85Z"/>
      <path class="cls-1" d="M583.18,85.18c15.09-.39,25.06,16.22,18.23,29.61-3.39,6.65-5.65,6.42-10.87,2.3-6.16-4.87-14.18-11.83-19.84-17.27-.79-.75-2.76-2.43-3.02-3.29-2-6.64,10.45-11.22,15.49-11.35ZM595.23,110.18c2.61-9.64-3.79-18.32-14.09-16.91-2.58.35-4.71.98-2.27,3.41,3.67,3.64,10.35,9.4,14.47,12.57.63.49.8,1.22,1.89.94Z"/>
      <path class="cls-1" d="M271.91,85.19c15.37-.74,25.85,15.91,18.86,29.6-3.39,6.65-5.65,6.42-10.87,2.3-6.16-4.87-14.18-11.83-19.84-17.27-.79-.75-2.76-2.43-3.02-3.29-1.93-6.39,9.95-11.11,14.86-11.35ZM284.59,110.18c2.76-9.63-3.86-18.31-14.09-16.91-2.58.35-4.71.98-2.27,3.41,3.67,3.64,10.35,9.4,14.47,12.57.63.49.8,1.22,1.89.94Z"/>
      <path class="cls-1" d="M180.05,29.53c-1.04.98-3.46,1.04-4.7.3-6.42-6.13-19.07-11.88-24.73-18.03-3.29-3.58-.8-6.17,3.03-7.09,6.99-1.66,22.43-4.31,29.4-4.58,3.56-.14,5.35.68,5.2,4.53-2.19,4.25-5.67,22.45-8.21,24.86ZM178.95,8.95c-.47-.34-9.97,1.17-11.44,1.45-.98.18-3.93.01-3.65,1.37,1.68.94,10.8,9,11.94,7.87l3.15-10.69Z"/>
      <path class="cls-1" d="M490.69,29.53c-1.04.98-3.46,1.04-4.7.3l-24.73-18.03c-2.89-4-1.13-6.1,3.03-7.09,6.89-1.64,22.54-4.31,29.4-4.58,3.57-.14,5.35.69,5.22,4.55-2.32,4.27-5.59,22.35-8.22,24.84ZM489.59,8.95c-.62-.45-11.7,1.58-13.51,1.9-.89.16-1.85-.6-1.58.91,1.68.94,10.8,9,11.94,7.87l3.15-10.69Z"/>
      <path class="cls-1" d="M55.7,130.31l-26.25,9.31c-4.96-.61-6.25-5.29-1.42-7.75,4.73-2.4,24.56-9.77,29.53-10.71,6.37-1.21,5.96,2.03,6.35,7.55.65,9.24.63,22.16.49,31.48-.07,5.05-7.15,5.94-8.03.58-1.07-6.53.4-16.21-.01-23.26-.14-2.37-1.08-4.7-.66-7.2Z"/>
      <path class="cls-1" d="M230.04,60.03c.47-.47,2.67-1.04,3.49-1.23,5.5-1.31,18.43-3.68,23.82-3.9,2.29-.1,4.56.89,4.67,3.41-1.19,3.97-8.23,25.87-10.38,27.41-1.55,1.11-4.58.95-5.74-.65l-16.3-20.18c-.65-1.17-.45-3.96.44-4.86ZM251.89,63.66l-11.31,1.89c-.26.95.24,1.04.62,1.58,1.77,2.53,4.81,5.16,6.62,7.85l4.08-11.31Z"/>
      <path class="cls-1" d="M540.68,60.03c.47-.47,2.67-1.04,3.49-1.23,5.5-1.31,18.43-3.68,23.82-3.9,2.29-.1,4.56.89,4.67,3.41-1.19,3.97-8.23,25.87-10.38,27.41-1.55,1.11-4.58.95-5.74-.65l-16.3-20.18c-.65-1.17-.45-3.96.44-4.86ZM562.53,63.66l-11.31,1.89c-.26.95.24,1.04.62,1.58,1.77,2.53,4.81,5.16,6.62,7.85l4.08-11.31Z"/>
      <path class="cls-1" d="M138.55,64.39c1.97-.29,4.03,1.66,4.43,3.48.05,7.62,2.32,15.66,2.64,23.14.14,3.38.49,5.77-3.5,6.6-4.07-2.1-24.99-9.17-26.72-11.58-.91-1.27-.96-3.8,0-5.12,6.84-4.26,13.39-10.97,20.22-14.99.83-.49,2.02-1.39,2.92-1.52ZM137.45,86.91c-1.08-1.54-.79-11.32-2.2-11.3l-8.49,6.6c-.28,1.27.5.87,1.26,1.22,1.31.59,8.81,3.94,9.42,3.49Z"/>
      <path class="cls-1" d="M399.48,5.29c3.5-1.09,6.69,1.31,5.59,4.93-.47,1.54-10.4,15.6-12.05,17.54-1.1,1.29-3.11,3.75-4.87,3.67-4-.18-10.36-10.65-13.94-13.03-2.3.02-8.3,22.97-15.1,15.09l.04-4.38,11.61-20.45c.64-.45,1.38-.92,2.19-.92,3.21,0,13.3,13.5,15.02,13.13,2.78-1.89,9.44-14.93,11.51-15.57Z"/>
      <path class="cls-1" d="M88.84,5.29c3.5-1.09,6.69,1.31,5.59,4.93-.49,1.63-10.33,15.48-12.05,17.54-7.76,9.29-12.64-5.14-18.81-9.37-2.3.02-8.3,22.97-15.1,15.09l.04-4.38,11.61-20.45c.64-.45,1.38-.92,2.19-.92,3.21,0,13.3,13.5,15.02,13.13,2.78-1.89,9.44-14.93,11.51-15.57Z"/>
      <path class="cls-1" d="M89.49,173.8c3.21-.67,5.94,1.66,4.94,4.94-.48,1.57-7.24,6.15-9.19,8.45-8.07,9.53-7.56,22.58,7.81,21.01,3.71-.38,12.51-5.64,12.95,1.06.2,3.04-3.51,4.54-5.93,5.33-21.85,7.13-35.81-11.1-22.88-29.79,1.78-2.57,9.49-10.41,12.3-11.01Z"/>
      <path class="cls-1" d="M298.91,65.07c15.81-1.87,21.74,20.58,7.31,26.81-19.82,8.56-28.54-24.3-7.31-26.81ZM298.25,73.22c-5.3,1.21-5.53,9.97-.48,11.53,11.28,3.48,12.05-14.17.48-11.53Z"/>
      <path class="cls-1" d="M315.84,11.03c-5.61-6.32-9.74,4.76-13.94-.85-3.07-4.1,4.01-8.24,7.59-8.72,14.7-1.95,21.42,18.08,9.2,24.28-3.6,1.82-11.25,2.21-9.29,8.39.55,1.72,2.66,2.7,3.42,4.14,2.54,4.77-2.76,8.2-7.17,4.03-7.04-6.65-5.07-17.59,3.67-21.52,3.07-1.38,8.05-1.16,8.02-5.85,0-1.03-.82-3.13-1.49-3.89Z"/>
      <path class="cls-1" d="M239.16,278.23c15.03-2.57,23.39,16.49,10.82,25.28-4.46,3.11-11.29,3.2-15.89.25-10.33-6.62-6.83-23.5,5.08-25.53ZM241.06,285.75c-6.87.99-7.47,11.41-.12,12.43,9.92,1.37,9.16-13.73.12-12.43Z"/>
      <path class="cls-1" d="M84.46,124.79c17.48-3.55,24.35,18.57,10.66,25.75-15.93,8.37-29.25-13.6-14.85-23.66.88-.62,3.22-1.9,4.19-2.1ZM83.59,142.67c5.85,5.91,14.8-2.39,9.48-8.53-5.55-6.42-15.26,2.69-9.48,8.53Z"/>
      <path class="cls-1" d="M549.79,278.23c14.8-2.53,23.26,15.92,11.17,25-4.51,3.39-11.49,3.57-16.25.53-10.33-6.62-6.83-23.5,5.08-25.53ZM551.7,285.75c-6.87.99-7.47,11.41-.12,12.43,9.92,1.37,9.16-13.73.12-12.43Z"/>
      <path class="cls-1" d="M532.14,73.96c17.54-.29,19.21,26.38,1.78,28.05-19.39,1.86-20.82-27.74-1.78-28.05ZM530.29,82.03c-6.53,1.49-4.87,13.27,2.84,12.32,8.1-.99,7.07-14.59-2.84-12.32Z"/>
      <path class="cls-1" d="M221.51,73.96c17.49-.29,19.28,26.37,1.78,28.05-19.28,1.85-20.88-27.74-1.78-28.05ZM219.65,82.03c-6.55,1.5-4.99,13.28,2.84,12.32,8.11-.99,7.06-14.59-2.84-12.32Z"/>
      <path class="cls-1" d="M334.91,279.97c-1.14,3.5-4.13,22.71-6.09,23.94-3.26,2.05-6.72-.16-6.37-3.95.43-4.73,4.52-22.77,6.18-27.2,1.28-3.41,3.54-3.35,6.53-2.15,3.3,1.32,20.68,11.12,23.23,13.23,3.47,2.87,1.33,8.23-3.22,7.05-3.65-.94-12.05-7.03-16.07-9.14-.73-.39-3.79-2.14-4.19-1.78Z"/>
      <path class="cls-1" d="M223.79,28.89c-1.44-1.74-1.03-4.84.88-5.99,3.89-2.32,8.42,3.6,12.37,4.19,2.59-.49,4.05-11.54,9.86-9.72,7.08,2.23-2.95,11.93-2.5,13.83,2.82,3.21,11.54,4.44,9.89,9.99-2.01,6.74-11.94-3.12-13.96-2.65-3.34,3.06-3.99,11.73-10,9.9-6.14-1.87,2.26-10.89,2.67-13.95-.4-1.38-8.03-4.17-9.21-5.6Z"/>
      <path class="cls-1" d="M534.43,28.89c-1.45-1.75-1.02-4.85.89-5.99,3.63-2.18,8.71,3.62,12.36,4.19,2.59-.49,4.05-11.54,9.86-9.72,7.08,2.23-2.95,11.93-2.5,13.83,2.82,3.21,11.54,4.44,9.89,9.99-2.01,6.74-11.93-3.12-13.96-2.64-3.15,3.12-4.09,11.69-10,9.9s2.26-10.89,2.67-13.95c-.4-1.38-8.03-4.17-9.21-5.6Z"/>
      <path class="cls-1" d="M87.2,242.91c-1.78,3.4-4.5,12.66-9.84,9.43-4.59-2.78,2.31-10.15,3.49-13.52-3.36-3.3-11.8-3.89-9.93-9.98,2-6.53,11.77,3.3,13.94,2.68,3.21-3.08,4.04-11.73,9.86-9.76,6.57,2.22-3.06,11.48-2.49,13.76,2.45,3.52,11.58,4.3,9.73,9.9-2.32,7.01-12.76-3.94-14.77-2.51Z"/>
      <path class="cls-1" d="M67.45,246.17c3.06-.09,4.65,3.6,3.26,6.35-4.65,9.19-19.5,13.81-29.14,12.97-4.85-.42-19.71-5-16.36-11.94,2.26-4.69,10.04,2.62,14.01,3.6,6.32,1.56,14.49.17,19.84-3.71,2.63-1.9,5.75-7.2,8.39-7.28Z"/>
      <path class="cls-1" d="M378.09,246.17c3.06-.09,4.65,3.6,3.26,6.35-4.65,9.19-19.5,13.81-29.14,12.97-4.85-.42-19.71-5-16.36-11.94,2.26-4.69,10.04,2.62,14.01,3.6,6.32,1.56,14.49.17,19.84-3.71,2.63-1.9,5.75-7.2,8.39-7.28Z"/>
      <path class="cls-1" d="M515.83.25c4.84-1.43,8.88,10.07,12.53,12.4,1.44.24,16.92-11.86,20.19-12.41,2.84-.48,5.07,1.62,4.56,4.58-.37,2.17-4.56,4.42-6.35,5.64-3.65,2.48-14.81,10.1-18.22,11.34-.71.26-1.34.55-2.13.37-1.32-.18-2.03-1.39-2.85-2.25-1.25-1.31-10.16-13.7-10.46-14.75-.5-1.77,1.07-4.45,2.71-4.93Z"/>
      <path class="cls-1" d="M241.66,6.88l-25.29,15.33c-.57.05-1.05-.16-1.56-.39-1.34-.62-12.54-16.28-12.55-17.6,4.97-12.95,12.23,7.89,15.46,8.42L237.9.24c4.14-.36,5.85,3.18,3.76,6.65Z"/>
      <path class="cls-1" d="M31.81.14l-3.13,7.51,12.24,5.08L46.37.25l8.07-.1c.13.7-.08,1.26-.29,1.91-.93,2.91-5.43,13.24-7,15.64-4.04,6.17-10.69,1.7-15.78-.46C21.76,13.14,17.28,11.73,23.01.14h8.8Z"/>
      <path class="cls-1" d="M342.45.14l-3.13,7.51,12.24,5.08,5.46-12.48,8.07-.1c.13.7-.08,1.26-.29,1.91-.93,2.91-5.43,13.24-7,15.64-1.29,1.97-3.21,3.27-5.61,3.26-2.21-.01-13.8-5.06-16.27-6.42-7.37-4.09-4.91-7.85-2.28-14.39h8.8Z"/>
      <path class="cls-1" d="M274.37,149.27c3.24-.59,5.45,2.55,4.24,5.54-.35.85-2.9,3.61-3.74,4.45-2.99,3.01-10.23,10.43-13.22,12.55-1.27.9-1.8,1.47-3.47,1.01-1.34-.37-13.88-9.86-15.65-11.44-2.13-1.9-4.76-3.53-2.31-6.59.77-.96,2.43-1.94,3.68-1.74,2.9.47,13.48,10.81,15.14,10.53,3.46-2.16,12.17-13.72,15.33-14.3Z"/>
      <path class="cls-1" d="M585.58,159.02c-2.89,3.01-10.31,10.66-13.3,12.79-.77.55-1.49,1.23-2.52,1.22-1.48,0-18.76-12.89-19.48-14.43-.24-.51-.43-.99-.39-1.56,3.73-10.52,13.97,4.76,19.78,6.54,1.23-.21,10.88-11.43,13.29-13.14,4.14-2.92,8.01.66,6.29,4.39-.12.25-3.13,3.63-3.67,4.19Z"/>
      <path class="cls-1" d="M76.92,163.14c3.72-.74,6.5,1.95,4.87,5.52-.61,1.33-6.64,4.3-8.48,5.98-3.72,3.39-7.79,9.69-9.45,14.44-1.37,3.94-1.5,10.71-2.84,13.51s-6.2,2.52-7.06-.41c-1.33-4.56,2.86-17.2,5.2-21.57,2.75-5.16,11.94-16.29,17.77-17.46Z"/>
      <path class="cls-1" d="M112.74,14.72c.9-.28,1.99-.26,2.89,0,3.08.92,7.46,14.66,10.19,17.47.84,0,7.03-10.01,9.13-10.98,3.59-1.65,6.84,1.55,5.31,5.31-.57,1.4-9.41,12.43-11,14.15-2.23,2.42-4.63,4.7-7.44,1.19-1.5-1.88-10.05-19.14-10.92-21.79-.61-1.84-.42-4.66,1.84-5.36Z"/>
      <path class="cls-1" d="M423.38,14.72c.9-.28,1.99-.26,2.89,0,3.08.92,7.46,14.66,10.19,17.47.84,0,7.03-10.01,9.13-10.98,3.59-1.65,6.84,1.55,5.31,5.31-.57,1.4-9.41,12.43-11,14.15-2.23,2.42-4.63,4.7-7.44,1.19-1.5-1.88-10.05-19.14-10.92-21.79-.61-1.84-.42-4.66,1.84-5.36Z"/>
      <path class="cls-1" d="M221.09,268.65c-1.68,1.07,1.84,14.15-1.24,17.94-2.49,3.06-6.37.82-6.9-2.57-.56-3.58-.48-15.11-.05-18.84.32-2.78,1.33-3.77,4.09-4.09,2.94-.34,19.72-.48,21.89.14,3.99,1.15,2.06,7.41-.5,7.41h-17.29Z"/>
      <path class="cls-1" d="M532.04,268.65c-2.3.71.04,12.46-.47,15.26-1.03,5.7-7.2,5.16-7.98.11-.56-3.58-.48-15.11-.05-18.84.32-2.78,1.33-3.77,4.09-4.09,2.94-.34,19.72-.48,21.89.14,3.99,1.15,2.06,7.41-.5,7.41h-16.98Z"/>
      <path class="cls-1" d="M181.93,120.35c2.95-.46,7.71,6.01,8.81,8.56,4.9,11.43-2.19,22.64-14.61,22.83-3.34.05-10.25-1.21-8.85-5.73,1.97-6.36,13.25,1.74,16.58-6.71,3.25-8.27-5.32-11.08-5.53-15.01-.09-1.67,2.07-3.69,3.61-3.93Z"/>
      <path class="cls-1" d="M282.09,232.81c3.6-.25,13.61-3.38,16.01-.61,1.53,1.77,1.37,4.35-.58,5.66-1.58,1.06-16.71,3.06-19.49,3.15-3.45.11-6.36-.32-5.89-4.57.21-1.92,4.71-15.59,5.69-17.64,1.45-3.04,3.98-5.15,6.79-2.04,3.14,3.47-3.16,11.49-2.52,16.05Z"/>
      <path class="cls-1" d="M267.41,45.52c6.81-1.58,4.86,4.47,7.48,8.03,2.22,3.02,6.39,3.84,9.89,3.05,3.13-.71,7.2-7.61,10.44-2.63,3.68,5.67-8.81,11.04-13.42,10.96-8.06-.15-16.97-7.56-16.08-16.06.12-1.17.45-2.92,1.69-3.35Z"/>
      <path class="cls-1" d="M506.76,214.12l23.11-18.7c4.13-1.74,7.44,2.48,4.73,5.99l-23.15,18.97c-4.4,1.95-7.03-2.51-4.68-6.26Z"/>
      <path class="cls-1" d="M196.12,214.12l23.11-18.7c4.13-1.74,7.44,2.48,4.73,5.99l-23.15,18.97c-4.4,1.95-7.03-2.51-4.68-6.26Z"/>
      <path class="cls-1" d="M361.46,64.76c-1.79-1.8-.89-5.51,1.59-6.6,3.61-1.59,23.59-6.66,27.58-7.03,6.18-.57,7.44,5.33,1.84,7.51-4.85,1.89-20.89,6.13-25.97,6.73-1.41.17-3.98.43-5.03-.62Z"/>
      <path class="cls-1" d="M50.82,64.76c-1.79-1.8-.89-5.51,1.59-6.6,3.61-1.59,23.59-6.66,27.58-7.03,6.18-.57,7.44,5.33,1.84,7.51-4.74,1.85-21.01,6.14-25.97,6.73-1.41.17-3.98.43-5.03-.62Z"/>
      <path class="cls-1" d="M210.85,184.51c4.41-1,6.78,3.24,3.96,6.49l-22.42,18.45c-3.56,2.28-7.42-1.66-5.29-5.29,1.2-2.05,12.16-10.7,14.83-12.84,1.6-1.28,7.65-6.52,8.93-6.81Z"/>
      <path class="cls-1" d="M228.47,205.29c.95-.25,1.91-.33,2.86-.03,2.49,1.42,3.12,4.36,1.07,6.49l-21.39,19.48c-4.56,1.95-8.25-2.56-5.03-6.29,6.92-5.05,12.9-12.34,19.5-17.6.78-.62,2.11-1.81,2.99-2.05Z"/>
      <path class="cls-1" d="M539.11,205.29c.95-.25,1.91-.33,2.86-.03,2.49,1.42,3.12,4.36,1.07,6.49l-20.78,18.84c-4.32,3.24-9.19-1.54-5.64-5.64,6.92-5.05,12.9-12.34,19.5-17.6.78-.62,2.11-1.81,2.99-2.05Z"/>
      <path class="cls-1" d="M47.7,45.58c2.49-2.64,25.03-6.05,29.78-8.3,4.34-.13,5.7,5.64,2.31,7.37l-28.86,7.65c-3.58.36-5.44-4.36-3.22-6.72Z"/>
      <path class="cls-1" d="M358.33,45.58c2.49-2.64,25.03-6.05,29.78-8.3,4.34-.13,5.71,5.63,2.3,7.37l-28.86,7.65c-3.58.36-5.44-4.36-3.22-6.72Z"/>
      <path class="cls-1" d="M84.5,63.77c4.26-.43,6.48,5.31,1.84,7.57-3.52,1.71-23.82,7.83-27.6,8.25-4.87.54-6.34-5.02-2.22-7.26l27.98-8.56Z"/>
      <path class="cls-1" d="M395.13,63.76c4.12-.53,6.58,5.28,1.85,7.58l-28.11,8.41c-4.33.35-5.69-5.61-1.72-7.42l27.97-8.57Z"/>
      <path class="cls-1" d="M148.77.14c-4.21,7.22-17.31,16.55-25.84,14.19-2.1-.58-2.4-4.12-1.24-5.74.98-1.38,8.52-2.59,11.16-3.93,1.38-.7,5.8-4.51,6.18-4.51h9.75Z"/>
      <path class="cls-1" d="M459.41.14c-4.64,7.31-14.64,14.58-23.58,14.51-5.65-.04-5.1-6.34-1.73-7.44,3.05-1,5.94-.8,9.39-2.56,1.38-.7,5.8-4.51,6.18-4.51h9.75Z"/>
      <path class="cls-1" d="M522.12,29.18c2.21-.46,2.94.17,4.21,1.82,1.15,1.49,7.78,14.56,8.24,16.29,1.21,4.54-3.88,7.31-6.56,4.03-.61-.74-8.34-15.64-8.59-16.58-.64-2.43,0-5,2.69-5.56Z"/>
      <path class="cls-1" d="M211.49,29.17c1.79-.32,3.12.47,4.22,1.81.91,1.1,7.84,14.87,8.23,16.31,1.21,4.54-3.88,7.31-6.56,4.03-.61-.74-8.34-15.64-8.59-16.58-.62-2.37.02-5.09,2.7-5.57Z"/>
      <path class="cls-1" d="M421.68.15l-8.17,16.67c-3.5,3.41-7.81,1.55-6.79-3.63.18-.9,5.54-11.54,6.13-12.13,1.79-1.83,6.33-.55,8.83-.91Z"/>
      <path class="cls-1" d="M111.04.15l-8.17,16.67c-3.85,3.58-8.07,1.28-6.63-4.11.31-1.18,5.63-11.36,6.32-11.92,1.72-1.43,6.15-.28,8.48-.63Z"/>
      <path class="cls-1" d="M395.9.14c-5.9,7.18-13.86,15.66-15.09,0h15.09Z"/>
      <path class="cls-1" d="M85.26.14c-5.9,7.18-13.86,15.66-15.09,0h15.09Z"/>
      <path class="cls-1" d="M136.03,190.79c6.98-1.44,6.39,9.42-.5,7.17-3.49-1.14-3.16-6.42.5-7.17Z"/>
      <path class="cls-1" d="M324.64,249.95c4.59-.18,5.61,7.69.47,8s-5.47-7.8-.47-8Z"/>
      <path class="cls-1" d="M496.2,52.62c3.67,0,5.43,4.45,2.25,7-5.36,4.28-9.31-7-2.25-7Z"/>
      <path class="cls-1" d="M2.71,53.69c4.77-1.29,7.58,7.04,1.52,7.77-5.03.6-5.62-6.66-1.52-7.77Z"/>
      <path class="cls-1" d="M120.01,267.23c-3.82-3.62,1.28-9.23,5.24-6.18s-1.64,9.59-5.24,6.18Z"/>
      <path class="cls-1" d="M430.64,267.23c-3.82-3.62,1.28-9.23,5.24-6.18,3.92,3.02-1.64,9.59-5.24,6.18Z"/>
      <path class="cls-1" d="M313.35,53.69c4.77-1.29,7.58,7.04,1.52,7.77-5.03.6-5.62-6.66-1.52-7.77Z"/>
      <path class="cls-1" d="M185.56,52.62c7.12,0,3.08,11.65-2.53,6.65-2.9-2.59-.88-6.65,2.53-6.65Z"/>
      <path class="cls-1" d="M540.99,107.78c7.02-1.44,6.33,9.46-.5,7.17-3.21-1.08-2.99-6.45.5-7.17Z"/>
      <path class="cls-1" d="M199.53,153.05c5-.78,5.56,8.03.49,8.03-4.66,0-5.71-7.21-.49-8.03Z"/>
      <path class="cls-1" d="M62.45,273.78c4.86-.75,6.47,7.32,1.03,7.92-4.96.54-5.65-7.2-1.03-7.92Z"/>
      <path class="cls-1" d="M193.88,275.04c6.07-1.16,6.57,9.45-.65,7.31-3.43-1.02-2.97-6.62.65-7.31Z"/>
      <path class="cls-1" d="M59.33,104.68c2.93,2.93-1.2,9.51-5.49,5.8-4.35-3.76,2.21-9.08,5.49-5.8Z"/>
      <path class="cls-1" d="M228.79,108.47c3.43-3.26,9.15,2.24,5.49,5.8-3.68,3.58-9.34-2.14-5.49-5.8Z"/>
      <path class="cls-1" d="M43.61,191.45c2.98,2.98-.96,9.71-5.49,5.8-4.1-3.54,2.11-9.18,5.49-5.8Z"/>
      <path class="cls-1" d="M579.34,70.67c4.7-.74,5.99,7.67.38,7.92-4.47.2-5.64-7.09-.38-7.92Z"/>
      <path class="cls-1" d="M373.09,273.78c5.04-.78,6.12,7.38,1.03,7.91-4.98.52-5.63-7.2-1.03-7.91Z"/>
      <path class="cls-1" d="M508.31,281.71c-2.92,2.92-9.5-1.19-5.8-5.49s9.18,2.11,5.8,5.49Z"/>
      <path class="cls-1" d="M164.34,126.06c2.92,2.92-1.19,9.5-5.49,5.8s2.11-9.18,5.49-5.8Z"/>
      <path class="cls-1" d="M236.66,193.04c-3.15,3.15-9.68-2.19-5.49-5.8,4.3-3.7,8.41,2.87,5.49,5.8Z"/>
      <path class="cls-1" d="M14.01,123.52c6.51-1.99,7.01,6.39,2.24,7.33-4.21.82-6.33-6.08-2.24-7.33Z"/>
      <path class="cls-1" d="M411.43,80.75c7.26-2.24,6.64,10.23-.29,6.96-2.9-1.37-2.38-6.14.29-6.96Z"/>
      <path class="cls-1" d="M100.79,80.75c7.26-2.24,6.64,10.23-.29,6.96-2.9-1.37-2.38-6.14.29-6.96Z"/>
      <path class="cls-1" d="M268.7,70.67c4.81-.73,5.85,7.75.38,7.91-4.45.14-5.29-7.17-.38-7.91Z"/>
      <path class="cls-1" d="M543.5,186.39c6.81-1.43,5.62,10.07-.94,6.97-3.11-1.47-2.45-6.26.94-6.97Z"/>
      <path class="cls-1" d="M114.01,132.3c4.5-.69,6.58,7.09.89,7.76-4.99.59-5.35-7.07-.89-7.76Z"/>
    </g>
  </g>
</svg>