<?xml version="1.0" encoding="UTF-8"?>
<svg id="Layer_2" data-name="Layer 2" xmlns="http://www.w3.org/2000/svg" viewBox="0 0 109.27 66.72">
  <defs>
    <style>
      .cls-1 {
        fill: #fff;
      }
    </style>
  </defs>
  <g id="Layer_1-2" data-name="Layer 1">
    <g>
      <g>
        <path class="cls-1" d="M17.2,59.23c1,0,2.18.41,2.18,1.12v.62h-.55v-.43c0-.54-.89-.8-1.62-.8-1.47,0-2.41,1.02-2.41,2.42s.96,2.45,2.4,2.45c.58,0,1.77-.18,1.77-.83v-.89h-1.21v-.47h1.75v1.49c0,.88-1.45,1.21-2.32,1.21-1.78,0-2.99-1.27-2.99-2.95s1.2-2.94,3-2.94Z"/>
        <path class="cls-1" d="M21.27,64.57h.64v-2.99c0-.12-.07-.18-.18-.18h-.56v-.45h.78c.34,0,.5.14.5.46v.28c0,.17-.02.31-.02.31h.02c.21-.62.67-1.09,1.31-1.09.12,0,.23.02.23.02v.54s-.11-.02-.21-.02c-.93,0-1.31,1.03-1.31,1.84v1.27h.64v.45h-1.84v-.45Z"/>
        <path class="cls-1" d="M27.76,62.53h.27v-.17c0-.76-.42-1.03-1-1.03-.7,0-1.2.4-1.2.4l-.26-.41s.56-.46,1.5-.46c1,0,1.52.53,1.52,1.53v2.01c0,.12.07.18.18.18h.45v.45h-.67c-.35,0-.49-.15-.49-.45v-.07c0-.19.02-.32.02-.32h-.02s-.35.93-1.41.93c-.67,0-1.38-.38-1.38-1.22,0-1.32,1.79-1.38,2.49-1.38ZM26.73,64.67c.83,0,1.3-.82,1.3-1.53v-.19h-.24c-.34,0-1.95-.03-1.95.91,0,.42.31.82.89.82Z"/>
        <path class="cls-1" d="M31.18,66.19v-4.61c0-.12-.07-.18-.18-.18h-.56v-.45h.78c.35,0,.49.15.49.43v.03c0,.16-.02.28-.02.28h.02s.34-.84,1.45-.84,1.8.88,1.8,2.14-.78,2.13-1.86,2.13c-1,0-1.37-.81-1.37-.81h-.02s.03.15.03.36v1.52h.7v.45h-1.96v-.45h.7ZM33.04,64.63c.73,0,1.34-.6,1.34-1.64s-.54-1.64-1.32-1.64c-.69,0-1.33.49-1.33,1.65,0,.82.46,1.63,1.31,1.63Z"/>
        <path class="cls-1" d="M36.42,64.57h.7v-4.79h-.74v-.45h1.3v2.24c0,.19-.03.33-.03.33h.02c.17-.38.72-1.05,1.66-1.05,1.02,0,1.38.58,1.38,1.58v2.14h.71v.45h-1.27v-2.45c0-.64-.1-1.21-.9-1.21-.89,0-1.57.73-1.57,1.7v1.5h.7v.45h-1.96v-.45Z"/>
        <path class="cls-1" d="M42.79,64.57h.7v-3.17h-.74v-.45h1.3v3.62h.7v.45h-1.96v-.45ZM43.46,59.33h.63v.69h-.63v-.69Z"/>
        <path class="cls-1" d="M48.33,60.85c.52,0,1.53.21,1.53.88v.45h-.52v-.3c0-.36-.62-.54-1-.54-.91,0-1.6.65-1.6,1.64s.73,1.65,1.62,1.65c.81,0,1.28-.5,1.36-.56l.24.42c-.09.08-.66.63-1.61.63-1.18,0-2.18-.83-2.18-2.12s.97-2.15,2.16-2.15Z"/>
        <path class="cls-1" d="M54.46,64.55h.76v-4.76h-.76v-.47h2.44c.49,0,.85.03,1.23.15,1.09.35,1.79,1.33,1.79,2.71s-.71,2.37-1.86,2.71c-.36.11-.73.14-1.16.14h-2.44v-.47ZM56.85,64.54c.39,0,.71-.03,1.03-.14.88-.28,1.44-1.07,1.44-2.22s-.53-1.94-1.4-2.24c-.34-.11-.67-.13-1.07-.13h-1.06v4.72h1.06Z"/>
        <path class="cls-1" d="M63.65,60.85c1.14,0,1.74.87,1.74,1.88,0,.1-.02.26-.02.26h-3.17c.03,1.05.75,1.64,1.6,1.64.76,0,1.26-.49,1.26-.49l.25.41s-.59.57-1.53.57c-1.23,0-2.16-.88-2.16-2.13,0-1.34.92-2.14,2.04-2.14ZM64.8,62.58c-.03-.86-.56-1.27-1.17-1.27-.69,0-1.29.45-1.42,1.27h2.59Z"/>
        <path class="cls-1" d="M66.96,63.76h.51v.29c0,.41.6.59,1.08.59.53,0,.97-.23.97-.64,0-.47-.53-.63-1.12-.85-.62-.23-1.28-.5-1.28-1.22s.74-1.09,1.43-1.09c.56,0,1.37.23,1.37.79v.47h-.51v-.3c0-.3-.41-.49-.85-.49-.46,0-.87.19-.87.59,0,.45.5.63,1.04.83.64.23,1.35.49,1.35,1.22s-.64,1.15-1.56,1.15c-.76,0-1.56-.34-1.56-.96v-.4Z"/>
        <path class="cls-1" d="M71.65,64.57h.7v-3.17h-.74v-.45h1.3v3.62h.7v.45h-1.96v-.45ZM72.32,59.33h.63v.69h-.63v-.69Z"/>
        <path class="cls-1" d="M76.75,66.24c.81,0,1.45-.37,1.45-1.29v-.41c0-.15.03-.29.03-.29h-.02c-.25.45-.67.75-1.32.75-1.11,0-1.84-.87-1.84-2.09s.68-2.06,1.79-2.06c.58,0,1.17.22,1.39.72h.02s-.02-.06-.02-.18c0-.3.12-.45.48-.45h.74v.45h-.51c-.12,0-.18.06-.18.17v3.35c0,1.3-.97,1.8-1.99,1.8-.47,0-.95-.12-1.35-.32l.21-.45s.51.28,1.12.28ZM78.21,62.91c0-1.19-.58-1.56-1.31-1.56-.81,0-1.28.58-1.28,1.56s.54,1.6,1.35,1.6c.66,0,1.23-.4,1.23-1.6Z"/>
        <path class="cls-1" d="M80.88,64.57h.7v-2.99c0-.12-.07-.18-.18-.18h-.56v-.45h.79c.35,0,.5.15.5.45v.23c0,.16-.03.29-.03.29h.02c.12-.31.65-1.08,1.69-1.08s1.37.58,1.37,1.58v2.14h.7v.45h-1.26v-2.45c0-.64-.11-1.21-.9-1.21-.91,0-1.57.79-1.57,1.69v1.51h.7v.45h-1.96v-.45Z"/>
        <path class="cls-1" d="M89.3,60.85c1.14,0,1.74.87,1.74,1.88,0,.1-.02.26-.02.26h-3.17c.03,1.05.75,1.64,1.6,1.64.76,0,1.26-.49,1.26-.49l.25.41s-.59.57-1.53.57c-1.23,0-2.16-.88-2.16-2.13,0-1.34.92-2.14,2.04-2.14ZM90.45,62.58c-.03-.86-.56-1.27-1.17-1.27-.69,0-1.29.45-1.42,1.27h2.59Z"/>
        <path class="cls-1" d="M92.66,64.57h.64v-2.99c0-.12-.07-.18-.18-.18h-.56v-.45h.78c.34,0,.5.14.5.46v.28c0,.17-.02.31-.02.31h.02c.21-.62.67-1.09,1.31-1.09.12,0,.23.02.23.02v.54s-.11-.02-.21-.02c-.93,0-1.31,1.03-1.31,1.84v1.27h.64v.45h-1.84v-.45Z"/>
      </g>
      <g>
        <path class="cls-1" d="M0,52.61h3.07v-19.56H0v-1.93h10.56c1.63,0,2.93.23,4.03.8,1.67.8,2.87,2.7,2.87,5.13s-1.2,4.17-3,5.07v.07c2.4.7,3.93,2.97,3.93,5.77s-1.67,5.23-3.97,6.1c-1.07.4-2.23.5-3.5.5H0v-1.93ZM11.1,41.28c2.37,0,3.97-1.63,3.97-4.1,0-1.53-.63-2.8-1.7-3.47-.73-.43-1.67-.6-2.8-.6h-5.17v8.16h5.7ZM11,52.55c.73,0,1.7-.07,2.43-.37,1.6-.67,2.57-2.27,2.57-4.27,0-2.83-1.9-4.63-4.63-4.63h-5.97v9.26h5.6Z"/>
        <path class="cls-1" d="M19.29,50.88h2.6v-12.3c0-.5-.27-.73-.73-.73h-2.27v-1.87h3.17c1.4,0,2.03.57,2.03,1.9v1.13c0,.7-.07,1.27-.07,1.27h.07c.83-2.53,2.7-4.47,5.3-4.47.47,0,.93.1.93.1v2.23s-.43-.07-.87-.07c-3.77,0-5.3,4.23-5.3,7.56v5.23h2.6v1.87h-7.46v-1.87Z"/>
        <path class="cls-1" d="M31.58,52.68h2.83v-13.03h-3v-1.87h5.27v14.9h2.83v1.87h-7.93v-1.87ZM34.28,31.12h2.57v2.83h-2.57v-2.83Z"/>
        <path class="cls-1" d="M48.27,35.7c2.1,0,6.2.87,6.2,3.63v1.83h-2.1v-1.23c0-1.5-2.53-2.2-4.07-2.2-3.67,0-6.46,2.67-6.46,6.73s2.97,6.77,6.56,6.77c3.27,0,5.2-2.07,5.5-2.3l.97,1.73c-.37.33-2.67,2.6-6.53,2.6-4.8,0-8.83-3.4-8.83-8.73s3.93-8.83,8.76-8.83Z"/>
        <path class="cls-1" d="M64.12,36.98c4.63,0,7.03,3.57,7.03,7.73,0,.4-.1,1.07-.1,1.07h-12.86c.1,4.3,3.03,6.73,6.5,6.73,3.07,0,5.1-2,5.1-2l1.03,1.7s-2.4,2.33-6.2,2.33c-5,0-8.76-3.6-8.76-8.76,0-5.5,3.73-8.8,8.26-8.8ZM68.79,44.12c-.13-3.53-2.27-5.23-4.73-5.23-2.8,0-5.23,1.83-5.77,5.23h10.5Z"/>
        <path class="cls-1" d="M72.05,51h2.83v-12.3c0-.5-.27-.73-.73-.73h-2.27v-1.87h3.2c1.4,0,2.03.6,2.03,1.87v.97c0,.67-.13,1.2-.13,1.2h.07c.47-1.27,2.63-4.43,6.83-4.43s5.57,2.37,5.57,6.5v8.8h2.83v1.87h-5.1v-10.06c0-2.63-.43-4.97-3.67-4.97-3.7,0-6.37,3.27-6.37,6.96v6.2h2.83v1.87h-7.93v-1.87Z"/>
        <path class="cls-1" d="M100.4,36.98c4.9,0,8.86,3.73,8.86,8.7s-3.97,8.86-8.86,8.86-8.83-3.8-8.83-8.86,3.97-8.7,8.83-8.7ZM100.4,52.51c3.6,0,6.53-2.93,6.53-6.83s-2.93-6.66-6.53-6.66-6.5,2.87-6.5,6.66,2.93,6.83,6.5,6.83Z"/>
      </g>
      <g>
        <path class="cls-1" d="M45.17,2.54h-9.1v2.07h3.32v17.53c-.04.68.11,1.75.11,1.75h-.07s-.39-.96-.75-1.54L24.6,2.54h-5.71v2.07h3.29v20.96h-3.29v2.07h9.11v-2.07h-3.32V8c.04-.64-.11-1.71-.11-1.71h.07s.39.96.75,1.54l14.07,19.82h2.43V4.61h3.28v-2.07Z"/>
        <polygon class="cls-1" points="50.81 7.14 45.17 7.14 45.17 9.14 48.38 9.14 48.38 23.1 45.35 23.1 45.35 25.1 53.84 25.1 53.84 23.1 50.81 23.1 50.81 7.14"/>
        <rect class="cls-1" x="48.24" width="2.75" height="3.03"/>
        <path class="cls-1" d="M90.32,23.21c-.5,0-.79-.25-.79-.79v-8.85c0-4.43-2.25-6.75-6.61-6.75-4.07,0-6.5,2.04-6.5,2.04l1.14,1.82s2.18-1.75,5.21-1.75c2.5,0,4.32,1.18,4.32,4.54v.75h-1.18c-3.03,0-10.82.25-10.82,6.07,0,3.68,3.07,5.36,6,5.36,4.61,0,6.14-4.11,6.14-4.11h.07s-.11.54-.11,1.39v.32c0,1.29.61,1.96,2.14,1.96h2.93v-2h-1.96ZM87.1,16.89c0,3.14-2.03,6.75-5.64,6.75-2.5,0-3.86-1.75-3.86-3.61,0-4.14,7-4,8.46-4h1.04v.86Z"/>
        <path class="cls-1" d="M87.31,30.41c-2.63.07-2.96,2.57-4.51,2.62-1.03.03-1.26-.86-1.42-1.74-.02-.18-.05-.36-.1-.52,0-.02,0-.05-.01-.07h0c-.06-.21-.14-.41-.25-.59-.54-.93-1.48-1.27-1.66-1.34-2.28-.83-4.55,1.22-5.31.38-.05-.06-.1-.13-.19-.8-.16-1.14-.16-2.08-.13-2.72v-9.43c0-4.43-1.54-6.96-5.96-6.96s-6.82,3.39-7.32,4.75h-.07s.14-.57.14-1.29v-1.03c0-1.36-.68-2-2.18-2h-3.43v2h2.43c.5,0,.79.25.79.78v13.18h-3.03v2h8.5v-2h-3.03v-6.64c0-3.96,2.86-7.46,6.82-7.46,3.46,0,3.93,2.5,3.93,5.32v9.4c-.17,2.67.09,3.96,2.02,4.74,2.44.99,3.79-1.19,5.2-.62,1.17.47.51,1.19,1.14,2.69h.02c.45,1.33,1.43,1.85,3.01,1.81,2.63-.07,3-2.61,4.51-2.65,1.26-.03,1.52,1.44,1.55,2.38l2.06-.06c-.08-2.78-1.27-4.19-3.47-4.13Z"/>
      </g>
    </g>
  </g>
</svg>