<?xml version="1.0" encoding="UTF-8"?>
<svg id="Layer_2" data-name="Layer 2" xmlns="http://www.w3.org/2000/svg" xmlns:xlink="http://www.w3.org/1999/xlink" viewBox="0 0 35.01 35.01">
  <defs>
    <style>
      .cls-1 {
        fill: #1d1d1b;
        opacity: .05;
      }

      .cls-1, .cls-2, .cls-3 {
        fill-rule: evenodd;
      }

      .cls-1, .cls-4 {
        isolation: isolate;
      }

      .cls-2 {
        fill: #fff;
      }

      .cls-4 {
        fill: none;
        opacity: .07;
        stroke: #1d1d1b;
        stroke-miterlimit: 10;
      }

      .cls-3 {
        fill: url(#linear-gradient);
      }
    </style>
    <linearGradient id="linear-gradient" x1="34.21" y1="775.93" x2="1.29" y2="739.62" gradientTransform="translate(0 -740)" gradientUnits="userSpaceOnUse">
      <stop offset="0" stop-color="#823af3"/>
      <stop offset=".36" stop-color="#4b66e1"/>
      <stop offset=".91" stop-color="#01f1c4"/>
    </linearGradient>
  </defs>
  <g id="Layer_1-2" data-name="Layer 1">
    <path class="cls-3" d="M31.83,0H3.18C1.43,0,0,1.42,0,3.18v28.65c0,1.76,1.42,3.18,3.18,3.18h28.65c1.76,0,3.18-1.42,3.18-3.18V3.18c0-1.76-1.42-3.18-3.18-3.18Z"/>
    <path class="cls-4" d="M24.23,23.84c-1.18,1.08-1.94,1.82-3.65,2.7-.98.49-2.08.78-3.12.78-3.12,0-4.64-2.87-4.94-5.35-.78-6.37,4.82-15.11,8.72-15.11.91,0,1.72.79,1.87,2.02.23,1.92.2,3.28-1.79,4.94-.22.18-.28.47-.17.65.17.26.7.29,1.78-.26,2.11-1.07,2.87-2.71,2.64-4.61-.26-2.11-2.1-3.88-4.57-3.88-1.2,0-2.52.36-3.7,1.08-5.14,3.13-8.46,10.28-7.8,15.73.21,1.73.93,3.62,2.29,4.9.92.85,2.57,1.89,4.52,1.89,2.11,0,3.9-.82,5.5-1.83,1.09-.69,1.99-1.53,2.76-2.4,1.26-1.17.35-1.9-.33-1.25Z"/>
    <path class="cls-1" d="M20.99,5.71c2.47,0,4.32,1.77,4.57,3.88.23,1.9-.53,3.55-2.64,4.61-.62.31-1.06.44-1.35.44-.22,0-.35-.07-.43-.18-.11-.17-.05-.47.17-.65,1.98-1.66,2.02-3.02,1.79-4.94-.15-1.23-.96-2.02-1.87-2.02-3.9,0-9.49,8.75-8.72,15.11.3,2.48,1.83,5.35,4.94,5.35,1.04,0,2.14-.29,3.12-.78,1.71-.88,2.48-1.62,3.65-2.7.17-.17.36-.24.53-.24.47,0,.73.62-.2,1.49-.77.86-1.67,1.7-2.76,2.39-1.6,1.01-3.39,1.83-5.5,1.83-1.95,0-3.61-1.04-4.52-1.89-1.36-1.27-2.08-3.17-2.29-4.9-.67-5.45,2.65-12.6,7.8-15.73,1.18-.72,2.5-1.08,3.7-1.08M20.99,4.71c-1.43,0-2.93.43-4.22,1.22-5.29,3.22-9,10.72-8.27,16.71.27,2.2,1.22,4.21,2.6,5.51.7.65,2.62,2.16,5.21,2.16s4.68-1.13,6.03-1.98c1.05-.67,2.01-1.5,2.94-2.54,1.13-1.07.94-1.97.81-2.3-.21-.54-.73-.89-1.33-.89-.43,0-.86.18-1.21.51l-.17.16c-1.05.97-1.75,1.61-3.25,2.37-.87.43-1.82.67-2.67.67-2.51,0-3.7-2.41-3.95-4.48-.49-4.02,1.76-8.95,4.23-11.75,1.26-1.43,2.54-2.25,3.49-2.25.37,0,.79.39.88,1.15.22,1.8.15,2.72-1.44,4.05-.6.5-.76,1.34-.37,1.96.16.24.52.64,1.27.64.49,0,1.08-.18,1.8-.55,2.35-1.18,3.48-3.18,3.18-5.63-.33-2.71-2.73-4.76-5.57-4.76h0Z"/>
    <path class="cls-2" d="M24.23,23.84c-1.18,1.08-1.94,1.82-3.65,2.7-.98.49-2.08.78-3.12.78-3.12,0-4.64-2.87-4.94-5.35-.78-6.37,4.82-15.11,8.72-15.11.91,0,1.72.79,1.87,2.02.23,1.92.2,3.28-1.79,4.94-.22.18-.28.47-.17.65.17.26.7.29,1.78-.26,2.11-1.07,2.87-2.71,2.64-4.61-.26-2.11-2.1-3.88-4.57-3.88-1.2,0-2.52.36-3.7,1.08-5.14,3.13-8.46,10.28-7.8,15.73.21,1.73.93,3.62,2.29,4.9.92.85,2.57,1.89,4.52,1.89,2.11,0,3.9-.82,5.5-1.83,1.09-.69,1.99-1.53,2.76-2.4,1.26-1.17.35-1.9-.33-1.25Z"/>
  </g>
</svg>