<?xml version="1.0" encoding="UTF-8"?>
<svg id="Layer_2" data-name="Layer 2" xmlns="http://www.w3.org/2000/svg" xmlns:xlink="http://www.w3.org/1999/xlink" viewBox="0 0 904.9 905">
  <defs>
    <style>
      .cls-1 {
        fill: url(#linear-gradient-2);
      }

      .cls-2 {
        fill: url(#linear-gradient-4);
      }

      .cls-3 {
        fill: url(#linear-gradient-3);
      }

      .cls-4 {
        fill: url(#linear-gradient-5);
      }

      .cls-5 {
        fill: url(#linear-gradient-7);
      }

      .cls-6 {
        fill: url(#linear-gradient-6);
      }

      .cls-7 {
        fill: #242424;
      }

      .cls-8 {
        fill: url(#linear-gradient);
      }
    </style>
    <linearGradient id="linear-gradient" x1="447.61" y1="621.88" x2="430.58" y2="874.82" gradientTransform="translate(0 -56)" gradientUnits="userSpaceOnUse">
      <stop offset="0" stop-color="#fd5200"/>
      <stop offset=".27" stop-color="#ffdc38"/>
      <stop offset=".96" stop-color="#f3feab"/>
    </linearGradient>
    <linearGradient id="linear-gradient-2" x1="289.5" y1="104.91" x2="119.16" y2="762.26" gradientTransform="translate(0 -56)" gradientUnits="userSpaceOnUse">
      <stop offset=".41" stop-color="#9e010a"/>
      <stop offset=".62" stop-color="#fc56a4"/>
      <stop offset=".69" stop-color="#f2a780"/>
      <stop offset=".74" stop-color="#ffc78a"/>
    </linearGradient>
    <linearGradient id="linear-gradient-3" x1="482.01" y1="658.32" x2="418.97" y2="205.16" gradientTransform="translate(0 907) scale(1 -1)" xlink:href="#linear-gradient-2"/>
    <linearGradient id="linear-gradient-4" x1="610.98" y1="401.54" x2="131.85" y2="746.9" gradientTransform="translate(0 -56)" gradientUnits="userSpaceOnUse">
      <stop offset=".08" stop-color="#0c64cc"/>
      <stop offset=".33" stop-color="#1f9fe3"/>
      <stop offset=".49" stop-color="#1b9deb"/>
      <stop offset=".76" stop-color="#72f07f"/>
      <stop offset=".86" stop-color="#dbfec8"/>
      <stop offset=".99" stop-color="#f6f9b1"/>
    </linearGradient>
    <linearGradient id="linear-gradient-5" x1="596.93" y1="596.03" x2="390.68" y2="473.26" gradientTransform="translate(0 -56)" gradientUnits="userSpaceOnUse">
      <stop offset=".03" stop-color="#4226a2"/>
      <stop offset=".28" stop-color="#7357cb"/>
      <stop offset=".47" stop-color="#4783df"/>
      <stop offset=".52" stop-color="#3b8fe4"/>
      <stop offset=".58" stop-color="#3b9de4"/>
      <stop offset=".66" stop-color="#3ba7e4"/>
      <stop offset=".74" stop-color="#3babe4"/>
    </linearGradient>
    <linearGradient id="linear-gradient-6" x1="349.96" y1="1011.24" x2="145.66" y2="889.64" gradientTransform="translate(0 -56)" gradientUnits="userSpaceOnUse">
      <stop offset="0" stop-color="#4226a2"/>
      <stop offset=".32" stop-color="#7357cb"/>
      <stop offset=".63" stop-color="#3b8fe4"/>
    </linearGradient>
    <linearGradient id="linear-gradient-7" x1="822.86" y1="249.92" x2="110.25" y2="806.87" gradientTransform="translate(0 -56)" gradientUnits="userSpaceOnUse">
      <stop offset="0" stop-color="#7c4adf"/>
      <stop offset=".35" stop-color="#e251d8"/>
      <stop offset=".73" stop-color="#fcdfbc"/>
      <stop offset=".83" stop-color="#f6f8b0"/>
      <stop offset=".92" stop-color="#fffff2"/>
      <stop offset=".99" stop-color="#f6f8b0"/>
    </linearGradient>
  </defs>
  <g id="Capa_1" data-name="Capa 1">
    <g>
      <path class="cls-7" d="M704.9,905H200.1C89.6,905,0,815.4,0,704.9V200.1C0,89.6,89.6,0,200.1,0h504.7c110.5,0,200.1,89.6,200.1,200.1v504.7c.1,110.6-89.5,200.2-200,200.2Z"/>
      <g>
        <path class="cls-8" d="M419.4,386.8c-114.3,34-316.2,111.9-325.9,428,36.5-170.2,126.5-194.6,291.9-233.5,165.4-38.8,255.3-82.6,355.1-201.8,99.7-119.2,65.7-289.4,65.7-289.4,0,92.4-65.7,153.2-128.9,197s-143.6,65.7-257.9,99.7Z"/>
        <g>
          <path class="cls-1" d="M93.5,814.9s0-.1,0,0c.3-8.2.7-16.1,1.2-23.9-.9,8.4-1.4,16.4-1.2,23.9Z"/>
          <path class="cls-3" d="M518.9,542.3c-85.9,16.2-173.4,14.3-230.8,29.4-102.1,26.7-187.2,148.3-194.6,243.1.3-8.1.7-16,1.2-23.9,11.3-103.2,106.4-272.5,315-365.2,66.4-29.5,126.2-60.8,178.2-92.8,33.6-13.1,63-27.6,89.3-45.8,63.2-43.8,128.9-104.6,128.9-197,0,0,5.4,138.8-39.6,257.6-6.2,11.3-13.2,22.2-21.2,32.5-60.6,78.7-132.1,126.9-226.4,162.1Z"/>
        </g>
        <path class="cls-2" d="M94.9,786.9c-.6,9.1-1.1,18.4-1.4,27.9-.6-8.6-.1-18,1.4-27.9,20.4-292.9,213.6-367.1,324.5-400.1,114.3-34,194.6-55.9,257.8-99.7s128.9-104.6,128.9-197c0,0,34.1,170.2-65.7,289.4-99.7,119.2-182.4,70.5-347.8,109.4-150.9,35.6-281.6,194.7-297.7,298Z"/>
        <g>
          <path class="cls-4" d="M351.3,506c155.7-29.2,252.9-26.8,360-141.1,107-114.3,94.8-274.8,94.8-274.8,0,92.4-65.7,153.2-128.9,197-26.4,18.3-55.8,32.7-89.3,45.8-52,32-123.9,64.7-190.3,94.2-208.6,92.7-291.6,260.6-302.9,363.8-.5,7.8-.9,15.7-1.2,23.9,7.4-94.9,102.2-279.6,257.8-308.8Z"/>
          <path class="cls-6" d="M93.5,814.9s0-.1,0,0c.3-8.2.7-16.1,1.2-23.9-.9,8.4-1.4,16.4-1.2,23.9Z"/>
        </g>
        <path class="cls-5" d="M460.8,411.2c-284.6,53.5-369.7,304.8-367.3,403.7,7.3-94.8,90-204.3,197-262.7,158.1-80.3,323.5-36.5,437.8-153.2s77.8-308.9,77.8-308.9c0,92.4-34.1,180-94.9,231.1-60.7,51-182.3,77-250.4,90Z"/>
      </g>
    </g>
  </g>
</svg>